<svg width="24" height="24" viewBox="0 0 24 24" fill="none" xmlns="http://www.w3.org/2000/svg">
<g clip-path="url(#clip0_250_6458)">
<path d="M23.2327 21.8602L17.5207 15.9194C18.9899 14.1763 19.7951 11.9697 19.794 9.68999C19.794 4.34701 15.447 0 10.1041 0C4.76108 0 0.414062 4.34701 0.414062 9.68999C0.414062 15.033 4.76108 19.38 10.1041 19.38C12.1099 19.38 14.0213 18.775 15.6556 17.6265L21.411 23.6124C21.6516 23.8622 21.9751 24 22.3219 24C22.6501 24 22.9614 23.8749 23.1978 23.6474C23.439 23.4148 23.5781 23.096 23.5847 22.761C23.5913 22.426 23.4647 22.102 23.2327 21.8602ZM10.1041 2.52782C14.0534 2.52782 17.2662 5.74069 17.2662 9.68999C17.2662 13.6393 14.0534 16.8522 10.1041 16.8522C6.15475 16.8522 2.94189 13.6393 2.94189 9.68999C2.94189 5.74069 6.15475 2.52782 10.1041 2.52782Z" fill="white"/>
</g>
<defs>
<clipPath id="clip0_250_6458">
<rect width="24" height="24" fill="white"/>
</clipPath>
</defs>
</svg>
