<?xml version="1.0" encoding="utf-8"?>
<!-- Generator: Adobe Illustrator 26.0.1, SVG Export Plug-In . SVG Version: 6.00 Build 0)  -->
<svg version="1.1" id="Layer_1" xmlns="http://www.w3.org/2000/svg" xmlns:xlink="http://www.w3.org/1999/xlink" x="0px" y="0px"
	 viewBox="0 0 16 16" style="enable-background:new 0 0 16 16;" xml:space="preserve">
<style type="text/css">
	.st0{fill:#DB5931;}
	.st1{fill:#1C8ADB;}
	.st2{fill:#1878BF;}
	.st3{fill:#FE3938;}
	.st4{fill:#FFFFFF;}
</style>
<g>
	<g>
		<path class="st0" d="M16,8c0,0.13,0,0.27-0.01,0.4c-0.01,0.1-0.01,0.2-0.02,0.29c0,0.04-0.01,0.08-0.01,0.12
			c-0.01,0.09-0.02,0.17-0.03,0.26c-0.01,0.05-0.01,0.1-0.02,0.15c-0.01,0.05-0.02,0.11-0.03,0.16c-0.01,0.06-0.02,0.12-0.03,0.18
			c-0.01,0.04-0.02,0.09-0.03,0.13c-0.01,0.03-0.01,0.06-0.02,0.09c-0.01,0.02-0.01,0.05-0.02,0.07c-0.01,0.04-0.02,0.07-0.03,0.11
			c-0.01,0.03-0.02,0.06-0.02,0.09c-0.01,0.03-0.02,0.07-0.03,0.1c-0.01,0.03-0.02,0.06-0.02,0.09c-0.01,0.03-0.02,0.07-0.03,0.1
			c-0.01,0.03-0.02,0.06-0.03,0.1c-0.01,0.03-0.02,0.05-0.02,0.08c-0.02,0.05-0.03,0.1-0.05,0.14c0,0,0,0.01-0.01,0.01
			c-0.02,0.05-0.04,0.1-0.06,0.16c0,0.01-0.01,0.03-0.01,0.04c-0.02,0.04-0.03,0.09-0.05,0.13c-0.01,0.02-0.01,0.04-0.02,0.05
			c-0.02,0.04-0.04,0.09-0.05,0.13c0,0.01-0.01,0.02-0.01,0.03c-0.02,0.05-0.05,0.1-0.07,0.16c-0.02,0.05-0.05,0.11-0.08,0.16
			c-0.02,0.05-0.05,0.1-0.07,0.14c-0.02,0.04-0.04,0.08-0.07,0.12c-0.02,0.04-0.04,0.07-0.06,0.11c-0.02,0.04-0.05,0.08-0.07,0.13
			c-0.03,0.05-0.06,0.11-0.1,0.16c-0.03,0.05-0.07,0.11-0.1,0.16c-0.03,0.05-0.07,0.1-0.1,0.15c-0.07,0.1-0.14,0.2-0.22,0.3
			c-0.04,0.05-0.07,0.1-0.11,0.15c-0.11,0.15-0.23,0.29-0.36,0.42c-0.04,0.04-0.07,0.08-0.11,0.12c-0.14,0.14-0.28,0.28-0.42,0.42
			c-0.03,0.03-0.06,0.05-0.09,0.08c-0.07,0.06-0.13,0.12-0.2,0.17c-0.04,0.03-0.08,0.06-0.12,0.1c0,0-0.01,0.01-0.01,0.01
			c-0.04,0.03-0.09,0.07-0.13,0.1c-0.01,0.01-0.01,0.01-0.02,0.02c-0.03,0.03-0.07,0.05-0.1,0.08c-0.02,0.01-0.04,0.03-0.06,0.04
			c-0.04,0.03-0.08,0.06-0.12,0.08c-0.01,0-0.01,0.01-0.02,0.01c-0.05,0.03-0.1,0.07-0.15,0.1c-0.05,0.03-0.09,0.06-0.14,0.09
			c-0.01,0.01-0.03,0.02-0.04,0.02c-0.04,0.02-0.08,0.05-0.12,0.07c-0.01,0.01-0.02,0.01-0.04,0.02c-0.05,0.03-0.1,0.06-0.15,0.09
			c-0.05,0.03-0.11,0.06-0.16,0.09c-0.05,0.03-0.11,0.06-0.16,0.08c-0.01,0-0.01,0.01-0.02,0.01c-0.05,0.02-0.1,0.05-0.14,0.07
			c-0.01,0.01-0.02,0.01-0.04,0.02c-0.05,0.02-0.1,0.04-0.14,0.06c-0.01,0-0.02,0.01-0.02,0.01c-0.04,0.02-0.09,0.04-0.13,0.06
			c-0.02,0.01-0.05,0.02-0.07,0.03c-0.04,0.02-0.08,0.03-0.12,0.05c-0.01,0-0.02,0.01-0.02,0.01c-0.05,0.02-0.11,0.04-0.16,0.06
			c-0.06,0.02-0.12,0.04-0.18,0.06c-0.01,0-0.01,0-0.02,0.01c-0.06,0.02-0.11,0.04-0.17,0.05c-0.48,0.15-0.99,0.25-1.51,0.31
			c-0.04,0-0.07,0.01-0.11,0.01c-0.04,0-0.07,0.01-0.11,0.01c-0.06,0-0.11,0.01-0.17,0.01L2.66,9.25C1.21,8.19,2.19,7.32,2.19,7.32
			l9.34-4.65l0.46,0.72l3.82,2.87c0,0,0,0,0,0c0.01,0.06,0.03,0.12,0.04,0.19c0,0.02,0.01,0.04,0.01,0.06
			c0.01,0.04,0.02,0.09,0.02,0.13c0.01,0.04,0.01,0.07,0.02,0.11c0,0.02,0.01,0.04,0.01,0.06c0.01,0.04,0.01,0.08,0.02,0.13
			c0,0.02,0.01,0.05,0.01,0.07c0.01,0.06,0.02,0.13,0.02,0.19c0.01,0.04,0.01,0.09,0.01,0.13c0,0,0,0,0,0c0,0.02,0,0.05,0.01,0.07
			c0,0.02,0,0.04,0,0.06c0,0.02,0,0.04,0,0.06c0,0,0,0.01,0,0.01c0,0.03,0,0.06,0,0.09c0,0.01,0,0.01,0,0.02c0,0.04,0,0.09,0,0.13
			C16,7.86,16,7.93,16,8z"/>
	</g>
	<g>
		<path class="st1" d="M16,8c0,0.13,0,0.27-0.01,0.4c-0.01,0.1-0.01,0.2-0.02,0.29c0,0.04-0.01,0.08-0.01,0.12
			c-0.01,0.09-0.02,0.17-0.03,0.26c-0.01,0.05-0.01,0.1-0.02,0.15c-0.01,0.05-0.02,0.11-0.03,0.16c-0.01,0.06-0.02,0.12-0.03,0.18
			c-0.01,0.04-0.02,0.09-0.03,0.13c-0.01,0.03-0.01,0.06-0.02,0.09c-0.01,0.02-0.01,0.05-0.02,0.07c-0.01,0.04-0.02,0.07-0.03,0.11
			c-0.01,0.03-0.02,0.06-0.02,0.09c-0.01,0.03-0.02,0.07-0.03,0.1c-0.01,0.03-0.02,0.06-0.02,0.09c-0.01,0.03-0.02,0.07-0.03,0.1
			c-0.01,0.03-0.02,0.06-0.03,0.1c-0.01,0.03-0.02,0.05-0.02,0.08c-0.02,0.05-0.03,0.1-0.05,0.14c0,0,0,0.01-0.01,0.01
			c-0.02,0.05-0.04,0.1-0.06,0.16c0,0.01-0.01,0.03-0.01,0.04c-0.02,0.04-0.03,0.09-0.05,0.13c-0.01,0.02-0.01,0.04-0.02,0.05
			c-0.02,0.04-0.04,0.09-0.05,0.13c0,0.01-0.01,0.02-0.01,0.03c-0.02,0.05-0.05,0.1-0.07,0.16c-0.02,0.05-0.05,0.11-0.08,0.16
			c-0.02,0.05-0.05,0.1-0.07,0.14c-0.02,0.04-0.04,0.08-0.07,0.12c-0.02,0.04-0.04,0.07-0.06,0.11c-0.02,0.04-0.05,0.08-0.07,0.13
			c-0.03,0.05-0.06,0.11-0.1,0.16c-0.03,0.05-0.07,0.11-0.1,0.16c-0.03,0.05-0.07,0.1-0.1,0.15c-0.07,0.1-0.14,0.2-0.22,0.3
			c-0.04,0.05-0.07,0.1-0.11,0.15c-0.11,0.15-0.23,0.29-0.36,0.42c-0.04,0.04-0.07,0.08-0.11,0.12c-0.14,0.14-0.28,0.28-0.42,0.42
			c-0.03,0.03-0.06,0.05-0.09,0.08c-0.07,0.06-0.13,0.12-0.2,0.17c-0.04,0.03-0.08,0.06-0.12,0.1c0,0-0.01,0.01-0.01,0.01
			c-0.04,0.03-0.09,0.07-0.13,0.1c-0.01,0.01-0.01,0.01-0.02,0.02c-0.03,0.03-0.07,0.05-0.1,0.08c-0.02,0.01-0.04,0.03-0.06,0.04
			c-0.04,0.03-0.08,0.06-0.12,0.08c-0.01,0-0.01,0.01-0.02,0.01c-0.05,0.03-0.1,0.07-0.15,0.1c-0.05,0.03-0.09,0.06-0.14,0.09
			c-0.01,0.01-0.03,0.02-0.04,0.02c-0.04,0.02-0.08,0.05-0.12,0.07c-0.01,0.01-0.02,0.01-0.04,0.02c-0.05,0.03-0.1,0.06-0.15,0.09
			c-0.05,0.03-0.11,0.06-0.16,0.09c-0.05,0.03-0.11,0.06-0.16,0.08c-0.01,0-0.01,0.01-0.02,0.01c-0.05,0.02-0.1,0.05-0.14,0.07
			c-0.01,0.01-0.02,0.01-0.04,0.02c-0.05,0.02-0.1,0.04-0.14,0.06c-0.01,0-0.02,0.01-0.02,0.01c-0.04,0.02-0.09,0.04-0.13,0.06
			c-0.02,0.01-0.05,0.02-0.07,0.03c-0.04,0.02-0.08,0.03-0.12,0.05c-0.01,0-0.02,0.01-0.02,0.01c-0.05,0.02-0.11,0.04-0.16,0.06
			c-0.06,0.02-0.12,0.04-0.18,0.06c-0.01,0-0.01,0-0.02,0.01c-0.06,0.02-0.11,0.04-0.17,0.05c-0.48,0.15-0.99,0.25-1.51,0.31
			c-0.04,0-0.07,0.01-0.11,0.01c-0.04,0-0.07,0.01-0.11,0.01c-0.06,0-0.11,0.01-0.17,0.01C8.3,16,8.15,16,8,16c-4.42,0-8-3.58-8-8
			s3.58-8,8-8c3.82,0,7.02,2.68,7.81,6.26c0,0,0,0,0,0c0.01,0.06,0.03,0.12,0.04,0.19c0,0.02,0.01,0.04,0.01,0.06
			c0.01,0.04,0.02,0.09,0.02,0.13c0.01,0.04,0.01,0.07,0.02,0.11c0,0.02,0.01,0.04,0.01,0.06c0.01,0.04,0.01,0.08,0.02,0.13
			c0,0.02,0.01,0.05,0.01,0.07c0.01,0.06,0.02,0.13,0.02,0.19c0.01,0.04,0.01,0.09,0.01,0.13c0,0,0,0,0,0c0,0.02,0,0.05,0.01,0.07
			c0,0.02,0,0.04,0,0.06c0,0.02,0,0.04,0,0.06c0,0,0,0.01,0,0.01c0,0.03,0,0.06,0,0.09c0,0.01,0,0.01,0,0.02c0,0.04,0,0.09,0,0.13
			C16,7.86,16,7.93,16,8z"/>
	</g>
	<g>
		<path class="st2" d="M16,8c0,0.13,0,0.27-0.01,0.4c-0.01,0.1-0.01,0.2-0.02,0.29c0,0.04-0.01,0.08-0.01,0.12
			c-0.01,0.09-0.02,0.17-0.03,0.26c-0.01,0.05-0.01,0.1-0.02,0.15c-0.01,0.05-0.02,0.11-0.03,0.16c-0.01,0.06-0.02,0.12-0.03,0.18
			c-0.01,0.04-0.02,0.09-0.03,0.13c-0.01,0.03-0.01,0.06-0.02,0.09c-0.01,0.02-0.01,0.05-0.02,0.07c-0.01,0.04-0.02,0.07-0.03,0.11
			c-0.01,0.03-0.02,0.06-0.02,0.09c-0.01,0.03-0.02,0.07-0.03,0.1c-0.01,0.03-0.02,0.06-0.02,0.09c-0.01,0.03-0.02,0.07-0.03,0.1
			c-0.01,0.03-0.02,0.06-0.03,0.1c-0.01,0.03-0.02,0.05-0.02,0.08c-0.02,0.05-0.03,0.1-0.05,0.14c0,0,0,0.01-0.01,0.01
			c-0.02,0.05-0.04,0.1-0.06,0.16c0,0.01-0.01,0.03-0.01,0.04c-0.02,0.04-0.03,0.09-0.05,0.13c-0.01,0.02-0.01,0.04-0.02,0.05
			c-0.02,0.04-0.04,0.09-0.05,0.13c0,0.01-0.01,0.02-0.01,0.03c-0.02,0.05-0.05,0.1-0.07,0.16c-0.02,0.05-0.05,0.11-0.08,0.16
			c-0.02,0.05-0.05,0.1-0.07,0.14c-0.02,0.04-0.04,0.08-0.07,0.12c-0.02,0.04-0.04,0.07-0.06,0.11c-0.02,0.04-0.05,0.08-0.07,0.13
			c-0.03,0.05-0.06,0.11-0.1,0.16c-0.03,0.05-0.07,0.11-0.1,0.16c-0.03,0.05-0.07,0.1-0.1,0.15c-0.07,0.1-0.14,0.2-0.22,0.3
			c-0.04,0.05-0.07,0.1-0.11,0.15c-0.11,0.15-0.23,0.29-0.36,0.42c-0.04,0.04-0.07,0.08-0.11,0.12c-0.14,0.14-0.28,0.28-0.42,0.42
			c-0.03,0.03-0.06,0.05-0.09,0.08c-0.07,0.06-0.13,0.12-0.2,0.17c-0.04,0.03-0.08,0.06-0.12,0.1c0,0-0.01,0.01-0.01,0.01
			c-0.04,0.03-0.09,0.07-0.13,0.1c-0.01,0.01-0.01,0.01-0.02,0.02c-0.03,0.03-0.07,0.05-0.1,0.08c-0.02,0.01-0.04,0.03-0.06,0.04
			c-0.04,0.03-0.08,0.06-0.12,0.08c-0.01,0-0.01,0.01-0.02,0.01c-0.05,0.03-0.1,0.07-0.15,0.1c-0.05,0.03-0.09,0.06-0.14,0.09
			c-0.01,0.01-0.03,0.02-0.04,0.02c-0.04,0.02-0.08,0.05-0.12,0.07c-0.01,0.01-0.02,0.01-0.04,0.02c-0.05,0.03-0.1,0.06-0.15,0.09
			c-0.05,0.03-0.11,0.06-0.16,0.09c-0.05,0.03-0.11,0.06-0.16,0.08c-0.01,0-0.01,0.01-0.02,0.01c-0.05,0.02-0.1,0.05-0.14,0.07
			c-0.01,0.01-0.02,0.01-0.04,0.02c-0.05,0.02-0.1,0.04-0.14,0.06c-0.01,0-0.02,0.01-0.02,0.01c-0.04,0.02-0.09,0.04-0.13,0.06
			c-0.02,0.01-0.05,0.02-0.07,0.03c-0.04,0.02-0.08,0.03-0.12,0.05c-0.01,0-0.02,0.01-0.02,0.01c-0.05,0.02-0.11,0.04-0.16,0.06
			c-0.06,0.02-0.12,0.04-0.18,0.06c-0.01,0-0.01,0-0.02,0.01c-0.06,0.02-0.11,0.04-0.17,0.05c-0.48,0.15-0.99,0.25-1.51,0.31
			c-0.04,0-0.07,0.01-0.11,0.01c-0.04,0-0.07,0.01-0.11,0.01c-0.06,0-0.11,0.01-0.17,0.01L2.66,9.25C3.68,8.5,4.25,8.29,4.25,8.29
			l6.77-4.25l0.79-0.65l4.16,4.09h0c0,0.02,0,0.04,0,0.06c0,0,0,0.01,0,0.01c0,0.03,0,0.06,0,0.09c0,0.01,0,0.01,0,0.02
			c0,0.04,0,0.09,0,0.13C16,7.86,16,7.93,16,8z"/>
	</g>
	<g>
		<path class="st3" d="M14.38,8.98"/>
	</g>
	<g>
		<path class="st4" d="M11.97,3.79L8.7,13.27c-0.14,0.35-0.66,0.31-0.75-0.06L6.55,9.77l-3.7-0.45C2.49,9.28,2.39,8.81,2.69,8.63
			l0.98-0.58l0.5-0.3l7.38-4.33C11.79,3.29,12.08,3.53,11.97,3.79z"/>
	</g>
	<g>
		<path class="st2" d="M9.92,5.84c-0.04,0-0.09-0.02-0.12-0.05C9.73,5.72,9.72,5.61,9.79,5.54l1.37-1.51
			c0.07-0.07,0.18-0.08,0.25-0.01c0.07,0.07,0.08,0.18,0.01,0.25l-1.37,1.51C10.02,5.82,9.97,5.84,9.92,5.84z"/>
	</g>
	<g>
		<path class="st2" d="M5.6,10.95c-0.04,0-0.09-0.02-0.12-0.05c-0.07-0.07-0.08-0.18-0.01-0.25l1.37-1.51
			C6.9,9.07,7.01,9.06,7.09,9.13C7.16,9.19,7.17,9.31,7.1,9.38L5.73,10.9C5.7,10.93,5.65,10.95,5.6,10.95z"/>
	</g>
	<g>
		<g>
			<g>
				<path class="st2" d="M8.55,7.71c-0.09,0.1-0.18,0.2-0.27,0.3c-0.15-0.06-0.27-0.16-0.36-0.3C7.77,7.43,7.8,7.09,8.01,6.85
					c0.19-0.21,0.37-0.43,0.56-0.64C8.9,5.84,9.48,5.88,9.74,6.29c0.17,0.27,0.15,0.63-0.06,0.87c-0.15,0.17-0.3,0.35-0.45,0.52
					c0,0-0.01,0.01-0.01,0.01c0-0.05,0.01-0.09,0.01-0.14c0-0.11-0.02-0.21-0.06-0.31c-0.01-0.02,0-0.03,0.01-0.04
					C9.24,7.12,9.32,7.03,9.4,6.94c0.1-0.11,0.12-0.25,0.07-0.39C9.42,6.42,9.32,6.34,9.18,6.31C9.05,6.29,8.93,6.33,8.85,6.43
					C8.65,6.65,8.46,6.86,8.27,7.09C8.17,7.2,8.15,7.34,8.21,7.48C8.28,7.62,8.39,7.69,8.54,7.7C8.54,7.7,8.55,7.71,8.55,7.71z"/>
			</g>
		</g>
		<g>
			<g>
				<path class="st2" d="M7.71,7.19C7.69,7.35,7.7,7.5,7.76,7.65c0,0.01,0,0.03-0.01,0.04C7.67,7.77,7.59,7.86,7.51,7.96
					c-0.16,0.19-0.1,0.48,0.12,0.58c0.15,0.07,0.33,0.04,0.45-0.09C8.27,8.24,8.46,8.02,8.64,7.8c0.1-0.11,0.12-0.25,0.06-0.39
					C8.65,7.28,8.54,7.2,8.39,7.18c-0.01,0-0.01,0-0.02,0c0,0,0,0-0.01-0.01C8.4,7.13,8.44,7.09,8.48,7.04
					c0.04-0.05,0.09-0.1,0.13-0.15c0.01-0.01,0.02-0.02,0.04-0.01c0.45,0.19,0.59,0.77,0.27,1.14C8.73,8.25,8.53,8.48,8.33,8.7
					C8.13,8.91,7.88,8.98,7.6,8.9C7.32,8.82,7.14,8.63,7.08,8.34c-0.05-0.23,0-0.43,0.15-0.61C7.39,7.55,7.54,7.38,7.7,7.2
					C7.7,7.19,7.71,7.19,7.71,7.19z"/>
			</g>
		</g>
	</g>
</g>
</svg>
