<svg width="16" height="16" viewBox="0 0 16 16" fill="none" xmlns="http://www.w3.org/2000/svg">
<g clip-path="url(#clip0_1_2)">
<path d="M16 8C16 8.13 16 8.27 15.99 8.4C15.98 8.5 15.98 8.6 15.97 8.69C15.97 8.73 15.96 8.77 15.96 8.81C15.95 8.9 15.94 8.98 15.93 9.07C15.92 9.12 15.92 9.17 15.91 9.22C15.9 9.27 15.89 9.33 15.88 9.38C15.87 9.44 15.86 9.5 15.85 9.56C15.84 9.6 15.83 9.65 15.82 9.69C15.81 9.72 15.81 9.75 15.8 9.78C15.79 9.8 15.79 9.83 15.78 9.85C15.77 9.89 15.76 9.92 15.75 9.96C15.74 9.99 15.73 10.02 15.73 10.05C15.72 10.08 15.71 10.12 15.7 10.15C15.69 10.18 15.68 10.21 15.68 10.24C15.67 10.27 15.66 10.31 15.65 10.34C15.64 10.37 15.63 10.4 15.62 10.44C15.61 10.47 15.6 10.49 15.6 10.52C15.58 10.57 15.57 10.62 15.55 10.66C15.55 10.66 15.55 10.67 15.54 10.67C15.52 10.72 15.5 10.77 15.48 10.83C15.48 10.84 15.47 10.86 15.47 10.87C15.45 10.91 15.44 10.96 15.42 11C15.41 11.02 15.41 11.04 15.4 11.05C15.38 11.09 15.36 11.14 15.35 11.18C15.35 11.19 15.34 11.2 15.34 11.21C15.32 11.26 15.29 11.31 15.27 11.37C15.25 11.42 15.22 11.48 15.19 11.53C15.17 11.58 15.14 11.63 15.12 11.67C15.1 11.71 15.08 11.75 15.05 11.79C15.03 11.83 15.01 11.86 14.99 11.9C14.97 11.94 14.94 11.98 14.92 12.03C14.89 12.08 14.86 12.14 14.82 12.19C14.79 12.24 14.75 12.3 14.72 12.35C14.69 12.4 14.65 12.45 14.62 12.5C14.55 12.6 14.48 12.7 14.4 12.8C14.36 12.85 14.33 12.9 14.29 12.95C14.18 13.1 14.06 13.24 13.93 13.37C13.89 13.41 13.86 13.45 13.82 13.49C13.68 13.63 13.54 13.77 13.4 13.91C13.37 13.94 13.34 13.96 13.31 13.99C13.24 14.05 13.18 14.11 13.11 14.16C13.07 14.19 13.03 14.22 12.99 14.26L12.98 14.27C12.94 14.3 12.89 14.34 12.85 14.37C12.84 14.38 12.84 14.38 12.83 14.39C12.8 14.42 12.76 14.44 12.73 14.47C12.71 14.48 12.69 14.5 12.67 14.51C12.63 14.54 12.59 14.57 12.55 14.59C12.54 14.59 12.54 14.6 12.53 14.6C12.48 14.63 12.43 14.67 12.38 14.7C12.33 14.73 12.29 14.76 12.24 14.79C12.23 14.8 12.21 14.81 12.2 14.81C12.16 14.83 12.12 14.86 12.08 14.88C12.07 14.89 12.06 14.89 12.04 14.9C11.99 14.93 11.94 14.96 11.89 14.99C11.84 15.02 11.78 15.05 11.73 15.08C11.68 15.11 11.62 15.14 11.57 15.16C11.56 15.16 11.56 15.17 11.55 15.17C11.5 15.19 11.45 15.22 11.41 15.24C11.4 15.25 11.39 15.25 11.37 15.26C11.32 15.28 11.27 15.3 11.23 15.32C11.22 15.32 11.21 15.33 11.21 15.33C11.17 15.35 11.12 15.37 11.08 15.39C11.06 15.4 11.03 15.41 11.01 15.42C10.97 15.44 10.93 15.45 10.89 15.47C10.88 15.47 10.87 15.48 10.87 15.48C10.82 15.5 10.76 15.52 10.71 15.54C10.65 15.56 10.59 15.58 10.53 15.6C10.52 15.6 10.52 15.6 10.51 15.61C10.45 15.63 10.4 15.65 10.34 15.66C9.86 15.81 9.35 15.91 8.83 15.97C8.79 15.97 8.76 15.98 8.72 15.98C8.68 15.98 8.65 15.99 8.61 15.99C8.55 15.99 8.5 16 8.44 16L2.66 9.25C1.21 8.19 2.19 7.32 2.19 7.32L11.53 2.67L11.99 3.39L15.81 6.26C15.82 6.32 15.84 6.38 15.85 6.45C15.85 6.47 15.86 6.49 15.86 6.51C15.87 6.55 15.88 6.6 15.88 6.64C15.89 6.68 15.89 6.71 15.9 6.75C15.9 6.77 15.91 6.79 15.91 6.81C15.92 6.85 15.92 6.89 15.93 6.94C15.93 6.96 15.94 6.99 15.94 7.01C15.95 7.07 15.96 7.14 15.96 7.2C15.97 7.24 15.97 7.29 15.97 7.33C15.97 7.35 15.97 7.38 15.98 7.4C15.98 7.42 15.98 7.44 15.98 7.46C15.98 7.48 15.98 7.5 15.98 7.52V7.53C15.98 7.56 15.98 7.59 15.98 7.62C15.98 7.63 15.98 7.63 15.98 7.64C15.98 7.68 15.98 7.73 15.98 7.77C16 7.86 16 7.93 16 8Z" fill="#DB5931"/>
<path d="M16 8C16 8.13 16 8.27 15.99 8.4C15.98 8.5 15.98 8.6 15.97 8.69C15.97 8.73 15.96 8.77 15.96 8.81C15.95 8.9 15.94 8.98 15.93 9.07C15.92 9.12 15.92 9.17 15.91 9.22C15.9 9.27 15.89 9.33 15.88 9.38C15.87 9.44 15.86 9.5 15.85 9.56C15.84 9.6 15.83 9.65 15.82 9.69C15.81 9.72 15.81 9.75 15.8 9.78C15.79 9.8 15.79 9.83 15.78 9.85C15.77 9.89 15.76 9.92 15.75 9.96C15.74 9.99 15.73 10.02 15.73 10.05C15.72 10.08 15.71 10.12 15.7 10.15C15.69 10.18 15.68 10.21 15.68 10.24C15.67 10.27 15.66 10.31 15.65 10.34C15.64 10.37 15.63 10.4 15.62 10.44C15.61 10.47 15.6 10.49 15.6 10.52C15.58 10.57 15.57 10.62 15.55 10.66C15.55 10.66 15.55 10.67 15.54 10.67C15.52 10.72 15.5 10.77 15.48 10.83C15.48 10.84 15.47 10.86 15.47 10.87C15.45 10.91 15.44 10.96 15.42 11C15.41 11.02 15.41 11.04 15.4 11.05C15.38 11.09 15.36 11.14 15.35 11.18C15.35 11.19 15.34 11.2 15.34 11.21C15.32 11.26 15.29 11.31 15.27 11.37C15.25 11.42 15.22 11.48 15.19 11.53C15.17 11.58 15.14 11.63 15.12 11.67C15.1 11.71 15.08 11.75 15.05 11.79C15.03 11.83 15.01 11.86 14.99 11.9C14.97 11.94 14.94 11.98 14.92 12.03C14.89 12.08 14.86 12.14 14.82 12.19C14.79 12.24 14.75 12.3 14.72 12.35C14.69 12.4 14.65 12.45 14.62 12.5C14.55 12.6 14.48 12.7 14.4 12.8C14.36 12.85 14.33 12.9 14.29 12.95C14.18 13.1 14.06 13.24 13.93 13.37C13.89 13.41 13.86 13.45 13.82 13.49C13.68 13.63 13.54 13.77 13.4 13.91C13.37 13.94 13.34 13.96 13.31 13.99C13.24 14.05 13.18 14.11 13.11 14.16C13.07 14.19 13.03 14.22 12.99 14.26L12.98 14.27C12.94 14.3 12.89 14.34 12.85 14.37C12.84 14.38 12.84 14.38 12.83 14.39C12.8 14.42 12.76 14.44 12.73 14.47C12.71 14.48 12.69 14.5 12.67 14.51C12.63 14.54 12.59 14.57 12.55 14.59C12.54 14.59 12.54 14.6 12.53 14.6C12.48 14.63 12.43 14.67 12.38 14.7C12.33 14.73 12.29 14.76 12.24 14.79C12.23 14.8 12.21 14.81 12.2 14.81C12.16 14.83 12.12 14.86 12.08 14.88C12.07 14.89 12.06 14.89 12.04 14.9C11.99 14.93 11.94 14.96 11.89 14.99C11.84 15.02 11.78 15.05 11.73 15.08C11.68 15.11 11.62 15.14 11.57 15.16C11.56 15.16 11.56 15.17 11.55 15.17C11.5 15.19 11.45 15.22 11.41 15.24C11.4 15.25 11.39 15.25 11.37 15.26C11.32 15.28 11.27 15.3 11.23 15.32C11.22 15.32 11.21 15.33 11.21 15.33C11.17 15.35 11.12 15.37 11.08 15.39C11.06 15.4 11.03 15.41 11.01 15.42C10.97 15.44 10.93 15.45 10.89 15.47C10.88 15.47 10.87 15.48 10.87 15.48C10.82 15.5 10.76 15.52 10.71 15.54C10.65 15.56 10.59 15.58 10.53 15.6C10.52 15.6 10.52 15.6 10.51 15.61C10.45 15.63 10.4 15.65 10.34 15.66C9.86 15.81 9.35 15.91 8.83 15.97C8.79 15.97 8.76 15.98 8.72 15.98C8.68 15.98 8.65 15.99 8.61 15.99C8.55 15.99 8.5 16 8.44 16C8.3 16 8.15 16 8 16C3.58 16 0 12.42 0 8C0 3.58 3.58 0 8 0C11.82 0 15.02 2.68 15.81 6.26C15.82 6.32 15.84 6.38 15.85 6.45C15.85 6.47 15.86 6.49 15.86 6.51C15.87 6.55 15.88 6.6 15.88 6.64C15.89 6.68 15.89 6.71 15.9 6.75C15.9 6.77 15.91 6.79 15.91 6.81C15.92 6.85 15.92 6.89 15.93 6.94C15.93 6.96 15.94 6.99 15.94 7.01C15.95 7.07 15.96 7.14 15.96 7.2C15.97 7.24 15.97 7.29 15.97 7.33C15.97 7.35 15.97 7.38 15.98 7.4C15.98 7.42 15.98 7.44 15.98 7.46C15.98 7.48 15.98 7.5 15.98 7.52V7.53C15.98 7.56 15.98 7.59 15.98 7.62C15.98 7.63 15.98 7.63 15.98 7.64C15.98 7.68 15.98 7.73 15.98 7.77C16 7.86 16 7.93 16 8Z" fill="url(#paint0_linear_1_2)"/>
<path d="M16 8C16 8.13 16 8.27 15.99 8.4C15.98 8.5 15.98 8.6 15.97 8.69C15.97 8.73 15.96 8.77 15.96 8.81C15.95 8.9 15.94 8.98 15.93 9.07C15.92 9.12 15.92 9.17 15.91 9.22C15.9 9.27 15.89 9.33 15.88 9.38C15.87 9.44 15.86 9.5 15.85 9.56C15.84 9.6 15.83 9.65 15.82 9.69C15.81 9.72 15.81 9.75 15.8 9.78C15.79 9.8 15.79 9.83 15.78 9.85C15.77 9.89 15.76 9.92 15.75 9.96C15.74 9.99 15.73 10.02 15.73 10.05C15.72 10.08 15.71 10.12 15.7 10.15C15.69 10.18 15.68 10.21 15.68 10.24C15.67 10.27 15.66 10.31 15.65 10.34C15.64 10.37 15.63 10.4 15.62 10.44C15.61 10.47 15.6 10.49 15.6 10.52C15.58 10.57 15.57 10.62 15.55 10.66C15.55 10.66 15.55 10.67 15.54 10.67C15.52 10.72 15.5 10.77 15.48 10.83C15.48 10.84 15.47 10.86 15.47 10.87C15.45 10.91 15.44 10.96 15.42 11C15.41 11.02 15.41 11.04 15.4 11.05C15.38 11.09 15.36 11.14 15.35 11.18C15.35 11.19 15.34 11.2 15.34 11.21C15.32 11.26 15.29 11.31 15.27 11.37C15.25 11.42 15.22 11.48 15.19 11.53C15.17 11.58 15.14 11.63 15.12 11.67C15.1 11.71 15.08 11.75 15.05 11.79C15.03 11.83 15.01 11.86 14.99 11.9C14.97 11.94 14.94 11.98 14.92 12.03C14.89 12.08 14.86 12.14 14.82 12.19C14.79 12.24 14.75 12.3 14.72 12.35C14.69 12.4 14.65 12.45 14.62 12.5C14.55 12.6 14.48 12.7 14.4 12.8C14.36 12.85 14.33 12.9 14.29 12.95C14.18 13.1 14.06 13.24 13.93 13.37C13.89 13.41 13.86 13.45 13.82 13.49C13.68 13.63 13.54 13.77 13.4 13.91C13.37 13.94 13.34 13.96 13.31 13.99C13.24 14.05 13.18 14.11 13.11 14.16C13.07 14.19 13.03 14.22 12.99 14.26L12.98 14.27C12.94 14.3 12.89 14.34 12.85 14.37C12.84 14.38 12.84 14.38 12.83 14.39C12.8 14.42 12.76 14.44 12.73 14.47C12.71 14.48 12.69 14.5 12.67 14.51C12.63 14.54 12.59 14.57 12.55 14.59C12.54 14.59 12.54 14.6 12.53 14.6C12.48 14.63 12.43 14.67 12.38 14.7C12.33 14.73 12.29 14.76 12.24 14.79C12.23 14.8 12.21 14.81 12.2 14.81C12.16 14.83 12.12 14.86 12.08 14.88C12.07 14.89 12.06 14.89 12.04 14.9C11.99 14.93 11.94 14.96 11.89 14.99C11.84 15.02 11.78 15.05 11.73 15.08C11.68 15.11 11.62 15.14 11.57 15.16C11.56 15.16 11.56 15.17 11.55 15.17C11.5 15.19 11.45 15.22 11.41 15.24C11.4 15.25 11.39 15.25 11.37 15.26C11.32 15.28 11.27 15.3 11.23 15.32C11.22 15.32 11.21 15.33 11.21 15.33C11.17 15.35 11.12 15.37 11.08 15.39C11.06 15.4 11.03 15.41 11.01 15.42C10.97 15.44 10.93 15.45 10.89 15.47C10.88 15.47 10.87 15.48 10.87 15.48C10.82 15.5 10.76 15.52 10.71 15.54C10.65 15.56 10.59 15.58 10.53 15.6C10.52 15.6 10.52 15.6 10.51 15.61C10.45 15.63 10.4 15.65 10.34 15.66C9.86 15.81 9.35 15.91 8.83 15.97C8.79 15.97 8.76 15.98 8.72 15.98C8.68 15.98 8.65 15.99 8.61 15.99C8.55 15.99 8.5 16 8.44 16L2.66 9.25C3.68 8.5 4.25 8.29 4.25 8.29L11.02 4.04L11.81 3.39L15.97 7.48C15.97 7.5 15.97 7.52 15.97 7.54V7.55C15.97 7.58 15.97 7.61 15.97 7.64C15.97 7.65 15.97 7.65 15.97 7.66C15.97 7.7 15.97 7.75 15.97 7.79C16 7.86 16 7.93 16 8Z" fill="url(#paint1_linear_1_2)"/>
<path d="M11.97 3.79L8.7 13.27C8.56 13.62 8.04 13.58 7.95 13.21L6.55 9.77L2.85 9.32C2.49 9.28 2.39 8.81 2.69 8.63L3.67 8.05L4.17 7.75L11.55 3.42C11.79 3.29 12.08 3.53 11.97 3.79Z" fill="white"/>
<path d="M9.92 5.84C9.88 5.84 9.83 5.82 9.8 5.79C9.73 5.72 9.72 5.61 9.79 5.54L11.16 4.03C11.23 3.96 11.34 3.95 11.41 4.02C11.48 4.09 11.49 4.2 11.42 4.27L10.05 5.78C10.02 5.82 9.97 5.84 9.92 5.84Z" fill="#0C1B16"/>
<path d="M5.6 10.95C5.56 10.95 5.51 10.93 5.48 10.9C5.41 10.83 5.4 10.72 5.47 10.65L6.84 9.14C6.9 9.07 7.01 9.06 7.09 9.13C7.16 9.19 7.17 9.31 7.1 9.38L5.73 10.9C5.7 10.93 5.65 10.95 5.6 10.95Z" fill="#0C1B16"/>
<path d="M8.55 7.71C8.46 7.81 8.37 7.91 8.28 8.01C8.13 7.95 8.01 7.85 7.92 7.71C7.77 7.43 7.8 7.09 8.01 6.85C8.2 6.64 8.38 6.42 8.57 6.21C8.9 5.84 9.48 5.88 9.74 6.29C9.91 6.56 9.89 6.92 9.68 7.16C9.53 7.33 9.38 7.51 9.23 7.68L9.22 7.69C9.22 7.64 9.23 7.6 9.23 7.55C9.23 7.44 9.21 7.34 9.17 7.24C9.16 7.22 9.17 7.21 9.18 7.2C9.24 7.12 9.32 7.03 9.4 6.94C9.5 6.83 9.52 6.69 9.47 6.55C9.42 6.42 9.32 6.34 9.18 6.31C9.05 6.29 8.93 6.33 8.85 6.43C8.65 6.65 8.46 6.86 8.27 7.09C8.17 7.2 8.15 7.34 8.21 7.48C8.28 7.62 8.39 7.69 8.54 7.7L8.55 7.71Z" fill="#0C1B16"/>
<path d="M7.71 7.19C7.69 7.35 7.7 7.5 7.76 7.65C7.76 7.66 7.76 7.68 7.75 7.69C7.67 7.77 7.59 7.86 7.51 7.96C7.35 8.15 7.41 8.44 7.63 8.54C7.78 8.61 7.96 8.58 8.08 8.45C8.27 8.24 8.46 8.02 8.64 7.8C8.74 7.69 8.76 7.55 8.7 7.41C8.65 7.28 8.54 7.2 8.39 7.18C8.38 7.18 8.38 7.18 8.37 7.18C8.37 7.18 8.37 7.18 8.36 7.17C8.4 7.13 8.44 7.09 8.48 7.04C8.52 6.99 8.57 6.94 8.61 6.89C8.62 6.88 8.63 6.87 8.65 6.88C9.1 7.07 9.24 7.65 8.92 8.02C8.73 8.25 8.53 8.48 8.33 8.7C8.13 8.91 7.88 8.98 7.6 8.9C7.32 8.82 7.14 8.63 7.08 8.34C7.03 8.11 7.08 7.91 7.23 7.73C7.39 7.55 7.54 7.38 7.7 7.2C7.7 7.19 7.71 7.19 7.71 7.19Z" fill="#0C1B16"/>
</g>
<defs>
<linearGradient id="paint0_linear_1_2" x1="0.951247" y1="5.19877" x2="17.5" y2="10" gradientUnits="userSpaceOnUse">
<stop stop-color="#6FF1B4"/>
<stop offset="1" stop-color="#0ABADC"/>
</linearGradient>
<linearGradient id="paint1_linear_1_2" x1="4" y1="10" x2="13" y2="14" gradientUnits="userSpaceOnUse">
<stop stop-color="#60DEB1"/>
<stop offset="1" stop-color="#10AAC6"/>
</linearGradient>
<clipPath id="clip0_1_2">
<rect width="16" height="16" fill="white"/>
</clipPath>
</defs>
</svg>
