<svg width="300" height="150" viewBox="0 0 1102 540" fill="none" xmlns="http://www.w3.org/2000/svg">
<path d="M313 270C313 271.85 312.95 273.69 312.87 275.52C312.8 276.87 312.71 278.23 312.59 279.57C312.55 280.13 312.49 280.68 312.44 281.24C312.32 282.42 312.18 283.61 312.02 284.78C311.93 285.48 311.83 286.17 311.73 286.86C311.61 287.6 311.49 288.34 311.36 289.08C311.22 289.93 311.06 290.78 310.89 291.63C310.77 292.25 310.64 292.88 310.5 293.5C310.42 293.92 310.33 294.33 310.23 294.75C310.15 295.09 310.07 295.42 309.99 295.76C309.87 296.27 309.75 296.78 309.62 297.29C309.51 297.72 309.4 298.14 309.29 298.56C309.17 299.02 309.05 299.47 308.92 299.92C308.81 300.32 308.7 300.71 308.58 301.11C308.45 301.56 308.31 302.02 308.17 302.47C308.04 302.92 307.9 303.36 307.75 303.8C307.65 304.16 307.53 304.51 307.41 304.86C307.2 305.52 306.97 306.18 306.74 306.83C306.72 306.89 306.7 306.96 306.67 307.02C306.42 307.74 306.16 308.47 305.88 309.18C305.82 309.36 305.75 309.54 305.68 309.71C305.46 310.31 305.22 310.9 304.98 311.49C304.88 311.74 304.78 311.99 304.67 312.24C304.43 312.84 304.18 313.45 303.91 314.04C303.86 314.18 303.8 314.31 303.74 314.45C303.42 315.18 303.1 315.9 302.76 316.62C302.42 317.36 302.07 318.09 301.71 318.82C301.39 319.48 301.06 320.14 300.72 320.8C300.42 321.38 300.12 321.95 299.81 322.52C299.53 323.04 299.25 323.56 298.96 324.07C298.63 324.66 298.3 325.24 297.96 325.82C297.53 326.57 297.08 327.31 296.63 328.04C296.18 328.78 295.72 329.51 295.25 330.23C294.78 330.95 294.31 331.67 293.82 332.38C292.86 333.8 291.86 335.2 290.82 336.58C290.31 337.26 289.78 337.94 289.25 338.62C287.66 340.64 286 342.61 284.27 344.51C283.78 345.06 283.28 345.6 282.77 346.13C280.89 348.13 278.93 350.06 276.91 351.91C276.51 352.28 276.11 352.64 275.7 352.99C274.79 353.81 273.86 354.61 272.92 355.39C272.37 355.84 271.82 356.29 271.26 356.74C271.22 356.78 271.17 356.82 271.12 356.85C270.52 357.33 269.91 357.81 269.3 358.27C269.2 358.35 269.1 358.43 268.99 358.5C268.52 358.87 268.04 359.23 267.55 359.58C267.29 359.77 267.03 359.97 266.76 360.15C266.22 360.54 265.68 360.93 265.13 361.31C265.04 361.37 264.94 361.44 264.85 361.5C264.17 361.97 263.49 362.43 262.8 362.88C262.16 363.3 261.52 363.71 260.87 364.12C260.69 364.23 260.5 364.35 260.32 364.46C259.78 364.79 259.25 365.12 258.71 365.43C258.54 365.54 258.38 365.63 258.22 365.72C257.54 366.13 256.86 366.52 256.17 366.9C255.42 367.33 254.66 367.74 253.89 368.14C253.16 368.53 252.43 368.91 251.69 369.28C251.59 369.33 251.5 369.38 251.41 369.42C250.75 369.75 250.09 370.07 249.43 370.38C249.26 370.46 249.1 370.54 248.94 370.61C248.28 370.92 247.62 371.22 246.96 371.51C246.84 371.57 246.73 371.62 246.62 371.66C246 371.94 245.39 372.2 244.77 372.45C244.44 372.6 244.1 372.74 243.77 372.86C243.23 373.09 242.69 373.3 242.15 373.51C242.04 373.56 241.94 373.6 241.83 373.63C241.09 373.92 240.34 374.2 239.59 374.47C238.79 374.76 237.98 375.04 237.16 375.31C237.08 375.34 237 375.37 236.92 375.39C236.15 375.65 235.38 375.9 234.6 376.13C227.88 378.2 220.88 379.64 213.68 380.39C213.17 380.45 212.66 380.5 212.15 380.54C211.64 380.59 211.12 380.63 210.61 380.67C209.82 380.73 209.03 380.79 208.24 380.83L127.9 287.31C107.79 272.61 121.43 260.5 121.43 260.5L251 196L257.39 206L310.37 245.89C310.38 245.9 310.38 245.92 310.38 245.93C310.57 246.78 310.75 247.64 310.92 248.5C310.97 248.77 311.02 249.04 311.07 249.31C311.19 249.92 311.3 250.53 311.4 251.14C311.49 251.66 311.58 252.18 311.65 252.7C311.7 252.95 311.74 253.21 311.77 253.47C311.86 254.05 311.95 254.63 312.02 255.22C312.07 255.56 312.11 255.9 312.15 256.25C312.27 257.14 312.37 258.03 312.45 258.92C312.52 259.54 312.57 260.16 312.62 260.78C312.62 260.8 312.63 260.81 312.62 260.83C312.65 261.17 312.68 261.52 312.71 261.87C312.73 262.17 312.75 262.47 312.77 262.77C312.79 263.07 312.8 263.37 312.82 263.67C312.83 263.72 312.83 263.77 312.83 263.83C312.85 264.26 312.88 264.7 312.89 265.13C312.9 265.2 312.9 265.28 312.9 265.36C312.93 265.96 312.95 266.55 312.96 267.14C312.99 268.09 313 269.04 313 270Z" fill="#DB5931"/>
<path d="M313 270C313 271.85 312.95 273.69 312.87 275.52C312.8 276.87 312.71 278.23 312.59 279.57C312.55 280.13 312.49 280.68 312.44 281.24C312.32 282.42 312.18 283.61 312.02 284.78C311.93 285.48 311.83 286.17 311.73 286.86C311.61 287.6 311.49 288.34 311.36 289.08C311.22 289.93 311.06 290.78 310.89 291.63C310.77 292.25 310.64 292.88 310.5 293.5C310.42 293.92 310.33 294.33 310.23 294.75C310.15 295.09 310.07 295.42 309.99 295.76C309.87 296.27 309.75 296.78 309.62 297.29C309.51 297.72 309.4 298.14 309.29 298.56C309.17 299.02 309.05 299.47 308.92 299.92C308.81 300.32 308.7 300.71 308.58 301.11C308.45 301.56 308.31 302.02 308.17 302.47C308.04 302.92 307.9 303.36 307.75 303.8C307.65 304.16 307.53 304.51 307.41 304.86C307.2 305.52 306.97 306.18 306.74 306.83C306.72 306.89 306.7 306.96 306.67 307.02C306.42 307.74 306.16 308.47 305.88 309.18C305.82 309.36 305.75 309.54 305.68 309.71C305.46 310.31 305.22 310.9 304.98 311.49C304.88 311.74 304.78 311.99 304.67 312.24C304.43 312.84 304.18 313.45 303.91 314.04C303.86 314.18 303.8 314.31 303.74 314.45C303.42 315.18 303.1 315.9 302.76 316.62C302.42 317.36 302.07 318.09 301.71 318.82C301.39 319.48 301.06 320.14 300.72 320.8C300.42 321.38 300.12 321.95 299.81 322.52C299.53 323.04 299.25 323.56 298.96 324.07C298.63 324.66 298.3 325.24 297.96 325.82C297.53 326.57 297.08 327.31 296.63 328.04C296.18 328.78 295.72 329.51 295.25 330.23C294.78 330.95 294.31 331.67 293.82 332.38C292.86 333.8 291.86 335.2 290.82 336.58C290.31 337.26 289.78 337.94 289.25 338.62C287.66 340.64 286 342.61 284.27 344.51C283.78 345.06 283.28 345.6 282.77 346.13C280.89 348.13 278.93 350.06 276.91 351.91C276.51 352.28 276.11 352.64 275.7 352.99C274.79 353.81 273.86 354.61 272.92 355.39C272.37 355.84 271.82 356.29 271.26 356.74C271.22 356.78 271.17 356.82 271.12 356.85C270.52 357.33 269.91 357.81 269.3 358.27C269.2 358.35 269.1 358.43 268.99 358.5C268.52 358.87 268.04 359.23 267.55 359.58C267.29 359.77 267.03 359.97 266.76 360.15C266.22 360.54 265.68 360.93 265.13 361.31C265.04 361.37 264.94 361.44 264.85 361.5C264.17 361.97 263.49 362.43 262.8 362.88C262.16 363.3 261.52 363.71 260.87 364.12C260.69 364.23 260.5 364.35 260.32 364.46C259.78 364.79 259.25 365.12 258.71 365.43C258.54 365.54 258.38 365.63 258.22 365.72C257.54 366.13 256.86 366.52 256.17 366.9C255.42 367.33 254.66 367.74 253.89 368.14C253.16 368.53 252.43 368.91 251.69 369.28C251.59 369.33 251.5 369.38 251.41 369.42C250.75 369.75 250.09 370.07 249.43 370.38C249.26 370.46 249.1 370.54 248.94 370.61C248.28 370.92 247.62 371.22 246.96 371.51C246.84 371.57 246.73 371.62 246.62 371.66C246 371.94 245.39 372.2 244.77 372.45C244.44 372.6 244.1 372.74 243.77 372.86C243.23 373.09 242.69 373.3 242.15 373.51C242.04 373.56 241.94 373.6 241.83 373.63C241.09 373.92 240.34 374.2 239.59 374.47C238.79 374.76 237.98 375.04 237.16 375.31C237.08 375.34 237 375.37 236.92 375.39C236.15 375.65 235.38 375.9 234.6 376.13C227.88 378.2 220.88 379.64 213.68 380.39C213.17 380.45 212.66 380.5 212.15 380.54C211.64 380.59 211.12 380.63 210.61 380.67C209.82 380.73 209.03 380.79 208.24 380.83C206.18 380.94 204.1 381 202 381C140.7 381 91 331.3 91 270C91 208.7 140.7 159 202 159C255.02 159 299.36 196.18 310.37 245.89C310.38 245.9 310.38 245.92 310.38 245.93C310.57 246.78 310.75 247.64 310.92 248.5C310.97 248.77 311.02 249.04 311.07 249.31C311.19 249.92 311.3 250.53 311.4 251.14C311.49 251.66 311.58 252.18 311.65 252.7C311.7 252.95 311.74 253.21 311.77 253.47C311.86 254.05 311.95 254.63 312.02 255.22C312.07 255.56 312.11 255.9 312.15 256.25C312.27 257.14 312.37 258.03 312.45 258.92C312.52 259.54 312.57 260.16 312.62 260.78C312.62 260.8 312.63 260.81 312.62 260.83C312.65 261.17 312.68 261.52 312.71 261.87C312.73 262.17 312.75 262.47 312.76 262.77C312.79 263.07 312.81 263.37 312.82 263.67C312.83 263.72 312.83 263.77 312.83 263.83C312.85 264.26 312.88 264.7 312.89 265.13C312.9 265.2 312.9 265.28 312.9 265.36C312.93 265.95 312.95 266.54 312.96 267.14C312.99 268.09 313 269.04 313 270Z" fill="#1C8ADB"/>
<path d="M313 270C313 271.85 312.95 273.69 312.87 275.52C312.8 276.87 312.71 278.23 312.59 279.57C312.55 280.13 312.49 280.68 312.44 281.24C312.32 282.42 312.18 283.61 312.02 284.78C311.93 285.48 311.83 286.17 311.73 286.86C311.61 287.6 311.49 288.34 311.36 289.08C311.22 289.93 311.06 290.78 310.89 291.63C310.77 292.25 310.64 292.88 310.5 293.5C310.42 293.92 310.33 294.33 310.23 294.75C310.15 295.09 310.07 295.42 309.99 295.76C309.87 296.27 309.75 296.78 309.62 297.29C309.51 297.72 309.4 298.14 309.29 298.56C309.17 299.02 309.05 299.47 308.92 299.92C308.81 300.32 308.7 300.71 308.58 301.11C308.45 301.56 308.31 302.02 308.17 302.47C308.04 302.92 307.9 303.36 307.75 303.8C307.65 304.16 307.53 304.51 307.41 304.86C307.2 305.52 306.97 306.18 306.74 306.83C306.72 306.89 306.7 306.96 306.67 307.02C306.42 307.74 306.16 308.47 305.88 309.18C305.82 309.36 305.75 309.54 305.68 309.71C305.46 310.31 305.22 310.9 304.98 311.49C304.88 311.74 304.78 311.99 304.67 312.24C304.43 312.84 304.18 313.45 303.91 314.04C303.86 314.18 303.8 314.31 303.74 314.45C303.42 315.18 303.1 315.9 302.76 316.62C302.42 317.36 302.07 318.09 301.71 318.82C301.39 319.48 301.06 320.14 300.72 320.8C300.42 321.38 300.12 321.95 299.81 322.52C299.53 323.04 299.25 323.56 298.96 324.07C298.63 324.66 298.3 325.24 297.96 325.82C297.53 326.57 297.08 327.31 296.63 328.04C296.18 328.78 295.72 329.51 295.25 330.23C294.78 330.95 294.31 331.67 293.82 332.38C292.86 333.8 291.86 335.2 290.82 336.58C290.31 337.26 289.78 337.94 289.25 338.62C287.66 340.64 286 342.61 284.27 344.51C283.78 345.06 283.28 345.6 282.77 346.13C280.89 348.13 278.93 350.06 276.91 351.91C276.51 352.28 276.11 352.64 275.7 352.99C274.79 353.81 273.86 354.61 272.92 355.39C272.37 355.84 271.82 356.29 271.26 356.74C271.22 356.78 271.17 356.82 271.12 356.85C270.52 357.33 269.91 357.81 269.3 358.27C269.2 358.35 269.1 358.43 268.99 358.5C268.52 358.87 268.04 359.23 267.55 359.58C267.29 359.77 267.03 359.97 266.76 360.15C266.22 360.54 265.68 360.93 265.13 361.31C265.04 361.37 264.94 361.44 264.85 361.5C264.17 361.97 263.49 362.43 262.8 362.88C262.16 363.3 261.52 363.71 260.87 364.12C260.69 364.23 260.5 364.35 260.32 364.46C259.78 364.79 259.25 365.12 258.71 365.43C258.54 365.54 258.38 365.63 258.22 365.72C257.54 366.13 256.86 366.52 256.17 366.9C255.42 367.33 254.66 367.74 253.89 368.14C253.16 368.53 252.43 368.91 251.69 369.28C251.59 369.33 251.5 369.38 251.41 369.42C250.75 369.75 250.09 370.07 249.43 370.38C249.26 370.46 249.1 370.54 248.94 370.61C248.28 370.92 247.62 371.22 246.96 371.51C246.84 371.57 246.73 371.62 246.62 371.66C246 371.94 245.39 372.2 244.77 372.45C244.44 372.6 244.1 372.74 243.77 372.86C243.23 373.09 242.69 373.3 242.15 373.51C242.04 373.56 241.94 373.6 241.83 373.63C241.09 373.92 240.34 374.2 239.59 374.47C238.79 374.76 237.98 375.04 237.16 375.31C237.08 375.34 237 375.37 236.92 375.39C236.15 375.65 235.38 375.9 234.6 376.13C227.88 378.2 220.88 379.64 213.68 380.39C213.17 380.45 212.66 380.5 212.15 380.54C211.64 380.59 211.12 380.63 210.61 380.67C209.82 380.73 209.03 380.79 208.24 380.83L127.9 287.31C142 277 150 274 150 274L244 215L255 206L312.76 262.77H312.77C312.79 263.07 312.8 263.37 312.82 263.67C312.83 263.72 312.83 263.77 312.83 263.83C312.85 264.26 312.88 264.7 312.89 265.13C312.9 265.2 312.9 265.28 312.9 265.36C312.93 265.96 312.95 266.55 312.96 267.14C312.99 268.09 313 269.04 313 270Z" fill="#1878BF"/>
<path d="M365.36 334.38H376.85V337.86H361.08V305.04H365.36V334.38Z" fill="#1E1E1E"/>
<path d="M398.18 305.04V337.86H393.9V305.04H398.18Z" fill="#1E1E1E"/>
<path d="M443.76 337.86H439.47L422.24 311.73V337.86H417.96V305H422.24L439.47 331.08V305H443.76V337.86Z" fill="#1E1E1E"/>
<path d="M481.33 337.86L467.82 322.89V337.86H463.53V305.04H467.82V320.25L481.38 305.04H486.79L471.91 321.47L486.93 337.86H481.33Z" fill="#1E1E1E"/>
<path d="M548.97 322.42C549.96 323.21 550.74 324.18 551.32 325.34C551.9 326.5 552.19 327.74 552.19 329.06C552.19 330.72 551.77 332.22 550.92 333.56C550.07 334.89 548.84 335.95 547.22 336.72C545.6 337.49 543.69 337.87 541.5 337.87H529.26V305.05H541.03C543.26 305.05 545.16 305.42 546.73 306.16C548.3 306.9 549.48 307.89 550.26 309.15C551.04 310.41 551.44 311.82 551.44 313.39C551.44 315.34 550.91 316.94 549.86 318.22C548.81 319.49 547.42 320.41 545.69 320.97C546.89 321.15 547.98 321.63 548.97 322.42ZM533.55 319.22H540.76C542.77 319.22 544.32 318.75 545.42 317.81C546.52 316.87 547.07 315.57 547.07 313.9C547.07 312.24 546.52 310.93 545.42 309.99C544.32 309.05 542.74 308.58 540.67 308.58H533.56V319.22H533.55ZM546.12 332.82C547.31 331.82 547.91 330.42 547.91 328.63C547.91 326.81 547.28 325.37 546.03 324.32C544.78 323.27 543.09 322.74 540.99 322.74H533.55V334.32H541.13C543.26 334.33 544.93 333.83 546.12 332.82Z" fill="#1E1E1E"/>
<path d="M574.8 305.04V325.8C574.8 328.72 575.51 330.88 576.94 332.3C578.37 333.71 580.35 334.42 582.9 334.42C585.41 334.42 587.38 333.71 588.81 332.3C590.24 330.89 590.95 328.72 590.95 325.8V305.04H595.23V325.76C595.23 328.49 594.68 330.79 593.58 332.66C592.48 334.53 591 335.92 589.13 336.83C587.26 337.74 585.17 338.2 582.84 338.2C580.52 338.2 578.42 337.74 576.55 336.83C574.68 335.92 573.21 334.53 572.12 332.66C571.04 330.79 570.5 328.49 570.5 325.76V305.04H574.8Z" fill="#1E1E1E"/>
<path d="M619.15 305.04V337.86H614.86V305.04H619.15Z" fill="#1E1E1E"/>
<path d="M643.21 334.38H654.7V337.86H638.93V305.04H643.21V334.38Z" fill="#1E1E1E"/>
<path d="M691.26 307.04C693.88 308.37 695.89 310.28 697.29 312.76C698.69 315.24 699.39 318.16 699.39 321.52C699.39 324.88 698.69 327.79 697.29 330.25C695.89 332.71 693.88 334.6 691.26 335.9C688.64 337.2 685.54 337.85 681.96 337.85H671.74V305.03H681.96C685.54 305.04 688.64 305.71 691.26 307.04ZM691.66 330.96C693.89 328.72 695 325.57 695 321.52C695 317.44 693.88 314.25 691.63 311.96C689.38 309.67 686.16 308.52 681.95 308.52H676.02V334.32H681.95C686.2 334.33 689.43 333.21 691.66 330.96Z" fill="#1E1E1E"/>
<path d="M721.79 305.04V337.86H717.51V305.04H721.79Z" fill="#1E1E1E"/>
<path d="M767.37 337.86H763.08L745.85 311.73V337.86H741.57V305H745.85L763.08 331.08V305H767.37V337.86Z" fill="#1E1E1E"/>
<path d="M812.01 314.55C811.1 312.64 809.78 311.15 808.05 310.1C806.32 309.05 804.32 308.52 802.02 308.52C799.73 308.52 797.66 309.05 795.83 310.1C793.99 311.15 792.55 312.66 791.5 314.62C790.45 316.58 789.92 318.85 789.92 321.42C789.92 323.99 790.45 326.25 791.5 328.2C792.55 330.15 793.99 331.65 795.83 332.7C797.67 333.75 799.73 334.28 802.02 334.28C805.22 334.28 807.86 333.32 809.93 331.41C812 329.5 813.21 326.91 813.55 323.64H800.46V320.16H818.12V323.46C817.87 326.16 817.02 328.63 815.58 330.88C814.13 333.13 812.24 334.9 809.88 336.2C807.52 337.5 804.9 338.15 802.02 338.15C798.97 338.15 796.2 337.44 793.69 336.01C791.18 334.58 789.19 332.6 787.73 330.05C786.27 327.51 785.54 324.63 785.54 321.43C785.54 318.23 786.27 315.35 787.73 312.79C789.19 310.23 791.18 308.24 793.69 306.81C796.2 305.38 798.98 304.67 802.02 304.67C805.5 304.67 808.59 305.53 811.27 307.26C813.95 308.99 815.91 311.42 817.13 314.56H812.01V314.55Z" fill="#1E1E1E"/>
<path d="M257.05 211.54L211.66 343.07C209.66 347.99 202.52 347.42 201.32 342.24L181.82 294.54L130.43 288.28C125.52 287.76 124.11 281.27 128.38 278.77L141.98 270.79L148.98 266.68L251.35 206.59C254.64 204.6 258.56 208 257.05 211.54Z" fill="white"/>
<path d="M228.68 240C228.08 240 227.48 239.79 227 239.35C225.98 238.42 225.9 236.84 226.82 235.82L245.82 214.82C246.75 213.8 248.33 213.72 249.35 214.64C250.37 215.57 250.45 217.15 249.53 218.17L230.53 239.17C230.04 239.72 229.36 240 228.68 240Z" fill="#1878BF"/>
<path d="M168.68 311C168.08 311 167.48 310.79 167 310.35C165.98 309.42 165.9 307.84 166.82 306.82L185.82 285.82C186.75 284.8 188.33 284.72 189.35 285.64C190.37 286.57 190.45 288.15 189.53 289.17L170.53 310.17C170.04 310.72 169.36 311 168.68 311Z" fill="#1878BF"/>
<path d="M209.69 265.92C208.45 267.33 207.23 268.7 205.99 270.11C203.91 269.28 202.23 267.89 201.05 265.91C198.79 262.11 199.2 257.35 202.1 254.02C204.68 251.05 207.27 248.08 209.88 245.14C214.42 240.02 222.53 240.63 226.12 246.35C228.5 250.14 228.15 255.04 225.22 258.43C223.14 260.84 221.03 263.22 218.93 265.62C218.89 265.67 218.83 265.71 218.76 265.78C218.79 265.11 218.85 264.49 218.86 263.86C218.88 262.38 218.6 260.95 218.06 259.58C217.96 259.33 218.02 259.18 218.18 259C219.27 257.77 220.36 256.54 221.42 255.3C222.79 253.71 223.15 251.89 222.41 249.93C221.71 248.07 220.31 246.95 218.34 246.63C216.54 246.34 214.95 246.87 213.73 248.23C211.04 251.23 208.38 254.27 205.76 257.33C204.37 258.95 204.11 260.84 204.97 262.8C205.82 264.74 207.38 265.76 209.49 265.92C209.55 265.9 209.6 265.91 209.69 265.92Z" fill="#1878BF"/>
<path d="M198.01 258.74C197.66 260.96 197.89 263.05 198.66 265.08C198.71 265.21 198.6 265.44 198.5 265.57C197.39 266.86 196.25 268.11 195.16 269.41C192.95 272.04 193.8 276 196.86 277.48C198.99 278.51 201.49 278.03 203.07 276.25C205.71 273.27 208.34 270.29 210.93 267.27C212.29 265.69 212.57 263.84 211.79 261.92C211 259.96 209.47 258.89 207.36 258.67C207.28 258.66 207.19 258.66 207.11 258.64C207.09 258.64 207.07 258.61 206.95 258.53C207.51 257.92 208.07 257.32 208.61 256.72C209.21 256.05 209.81 255.37 210.39 254.68C210.56 254.47 210.71 254.45 210.95 254.55C217.15 257.2 219.1 265.19 214.74 270.35C212.08 273.51 209.38 276.64 206.57 279.66C203.81 282.64 200.31 283.61 196.41 282.53C192.5 281.44 190.07 278.77 189.23 274.8C188.57 271.67 189.28 268.78 191.35 266.32C193.47 263.8 195.68 261.35 197.85 258.87C197.88 258.82 197.92 258.81 198.01 258.74Z" fill="#1878BF"/>
<path d="M378.134 266.983H400.578V280.199H361V209.912H378.134V266.983Z" fill="#1E1E1E"/>
<path d="M417.367 218.523C414.362 218.523 411.89 217.655 409.953 215.92C408.083 214.117 407.147 211.915 407.147 209.312C407.147 206.642 408.083 204.439 409.953 202.703C411.89 200.901 414.362 200 417.367 200C420.307 200 422.711 200.901 424.582 202.703C426.519 204.439 427.487 206.642 427.487 209.312C427.487 211.915 426.519 214.117 424.582 215.92C422.711 217.655 420.307 218.523 417.367 218.523ZM425.884 224.33V280.199H408.75V224.33H425.884Z" fill="#1E1E1E"/>
<path d="M472.368 223.729C478.914 223.729 484.125 225.865 487.999 230.137C491.94 234.342 493.911 240.15 493.911 247.559V280.199H476.877V249.862C476.877 246.124 475.909 243.22 473.971 241.151C472.034 239.082 469.429 238.047 466.156 238.047C462.883 238.047 460.278 239.082 458.341 241.151C456.403 243.22 455.435 246.124 455.435 249.862V280.199H438.301V224.33H455.435V231.739C457.172 229.269 459.51 227.334 462.449 225.932C465.388 224.464 468.694 223.729 472.368 223.729Z" fill="#1E1E1E"/>
<path d="M539.984 280.199L522.951 256.77V280.199H505.817V206.108H522.951V247.058L539.884 224.33H561.026L537.78 252.365L561.226 280.199H539.984Z" fill="#1E1E1E"/>
<path d="M590.501 281C585.624 281 581.282 280.166 577.475 278.497C573.667 276.828 570.661 274.559 568.457 271.689C566.253 268.752 565.017 265.481 564.75 261.876H581.683C581.884 263.812 582.785 265.381 584.389 266.582C585.992 267.784 587.962 268.384 590.3 268.384C592.438 268.384 594.074 267.984 595.21 267.183C596.412 266.315 597.013 265.214 597.013 263.879C597.013 262.277 596.178 261.109 594.508 260.375C592.839 259.574 590.133 258.706 586.392 257.771C582.385 256.837 579.045 255.869 576.373 254.868C573.701 253.8 571.396 252.164 569.459 249.962C567.522 247.692 566.553 244.655 566.553 240.85C566.553 237.646 567.422 234.743 569.158 232.14C570.962 229.47 573.567 227.367 576.974 225.832C580.447 224.297 584.556 223.529 589.298 223.529C596.312 223.529 601.823 225.265 605.831 228.735C609.906 232.206 612.243 236.812 612.845 242.553H597.013C596.746 240.617 595.878 239.082 594.408 237.947C593.006 236.812 591.135 236.245 588.797 236.245C586.793 236.245 585.257 236.645 584.188 237.446C583.119 238.18 582.585 239.215 582.585 240.55C582.585 242.152 583.42 243.354 585.09 244.155C586.827 244.956 589.499 245.756 593.106 246.557C597.247 247.625 600.621 248.693 603.226 249.761C605.831 250.763 608.102 252.431 610.039 254.768C612.043 257.037 613.078 260.108 613.145 263.979C613.145 267.25 612.21 270.187 610.34 272.79C608.536 275.326 605.898 277.329 602.424 278.797C599.017 280.266 595.043 281 590.501 281Z" fill="#1E1E1E"/>
<path d="M690.651 209.912V223.629H661.995V238.447H683.437V251.764H661.995V280.199H644.861V209.912H690.651Z" fill="#1E1E1E"/>
<path d="M696.25 252.164C696.25 246.424 697.319 241.384 699.456 237.046C701.661 232.707 704.633 229.37 708.374 227.033C712.115 224.697 716.289 223.529 720.899 223.529C724.84 223.529 728.28 224.33 731.219 225.932C734.225 227.534 736.529 229.637 738.133 232.24V224.33H755.266V280.199H738.133V272.289C736.463 274.892 734.125 276.995 731.119 278.597C728.18 280.199 724.739 281 720.798 281C716.256 281 712.115 279.832 708.374 277.496C704.633 275.093 701.661 271.722 699.456 267.383C697.319 262.978 696.25 257.905 696.25 252.164ZM738.133 252.265C738.133 247.993 736.93 244.622 734.525 242.152C732.187 239.682 729.315 238.447 725.908 238.447C722.502 238.447 719.596 239.682 717.191 242.152C714.853 244.555 713.684 247.892 713.684 252.164C713.684 256.436 714.853 259.841 717.191 262.377C719.596 264.847 722.502 266.082 725.908 266.082C729.315 266.082 732.187 264.847 734.525 262.377C736.93 259.907 738.133 256.536 738.133 252.265Z" fill="#1E1E1E"/>
<path d="M784.796 233.642C786.8 230.571 789.305 228.168 792.311 226.433C795.317 224.63 798.656 223.729 802.33 223.729V241.852H797.621C793.346 241.852 790.14 242.786 788.002 244.655C785.865 246.457 784.796 249.661 784.796 254.267V280.199H767.662V224.33H784.796V233.642Z" fill="#1E1E1E"/>
<path d="M881.861 223.729C888.808 223.729 894.319 225.832 898.393 230.037C902.535 234.242 904.606 240.083 904.606 247.559V280.199H887.572V249.862C887.572 246.257 886.603 243.487 884.666 241.551C882.796 239.549 880.191 238.548 876.851 238.548C873.511 238.548 870.872 239.549 868.935 241.551C867.065 243.487 866.13 246.257 866.13 249.862V280.199H849.096V249.862C849.096 246.257 848.128 243.487 846.19 241.551C844.32 239.549 841.715 238.548 838.375 238.548C835.035 238.548 832.396 239.549 830.459 241.551C828.589 243.487 827.654 246.257 827.654 249.862V280.199H810.52V224.33H827.654V231.339C829.391 229.002 831.662 227.167 834.467 225.832C837.273 224.43 840.446 223.729 843.986 223.729C848.194 223.729 851.935 224.63 855.208 226.433C858.548 228.235 861.153 230.805 863.024 234.142C864.961 231.072 867.599 228.569 870.939 226.633C874.279 224.697 877.92 223.729 881.861 223.729Z" fill="#1E1E1E"/>
<path d="M969.293 251.363C969.293 252.965 969.192 254.634 968.992 256.37H930.216C930.483 259.841 931.585 262.511 933.522 264.379C935.526 266.182 937.964 267.083 940.837 267.083C945.112 267.083 948.084 265.281 949.754 261.676H967.99C967.055 265.347 965.352 268.651 962.88 271.588C960.475 274.525 957.436 276.828 953.762 278.497C950.088 280.166 945.98 281 941.438 281C935.96 281 931.084 279.832 926.809 277.496C922.534 275.159 919.194 271.822 916.789 267.483C914.384 263.145 913.182 258.072 913.182 252.265C913.182 246.457 914.351 241.384 916.689 237.046C919.094 232.707 922.434 229.37 926.709 227.033C930.984 224.697 935.893 223.529 941.438 223.529C946.848 223.529 951.658 224.664 955.866 226.933C960.075 229.203 963.348 232.44 965.686 236.645C968.09 240.85 969.293 245.756 969.293 251.363ZM951.758 246.858C951.758 243.921 950.756 241.585 948.752 239.849C946.748 238.114 944.243 237.246 941.237 237.246C938.365 237.246 935.927 238.08 933.923 239.749C931.986 241.418 930.783 243.787 930.316 246.858H951.758Z" fill="#1E1E1E"/>
<path d="M995.465 233.642C997.469 230.571 999.974 228.168 1002.98 226.433C1005.99 224.63 1009.33 223.729 1013 223.729V241.852H1008.29C1004.02 241.852 1000.81 242.786 998.672 244.655C996.534 246.457 995.465 249.661 995.465 254.267V280.199H978.332V224.33H995.465V233.642Z" fill="#1E1E1E"/>
</svg>
