<?xml version="1.0" encoding="utf-8"?>
<!-- Generator: Adobe Illustrator 26.0.1, SVG Export Plug-In . SVG Version: 6.00 Build 0)  -->
<svg version="1.1" id="Layer_1" xmlns="http://www.w3.org/2000/svg" xmlns:xlink="http://www.w3.org/1999/xlink" x="0px" y="0px"
	 viewBox="0 0 1080 540" style="enable-background:new 0 0 1080 540;" xml:space="preserve">
<style type="text/css">
	.st0{fill:#DB5931;}
	.st1{fill:#1C8ADB;}
	.st2{fill:#1878BF;}
	.st3{fill:#1E1E1E;}
	.st4{fill:#FE3938;}
	.st5{fill:#FFFFFF;}
</style>
<g>
	<path class="st0" d="M390.82,270c0,1.85-0.05,3.69-0.13,5.52c-0.07,1.35-0.16,2.71-0.28,4.05c-0.04,0.56-0.1,1.11-0.15,1.67
		c-0.12,1.18-0.26,2.37-0.42,3.54c-0.09,0.7-0.19,1.39-0.29,2.08c-0.12,0.74-0.24,1.48-0.37,2.22c-0.14,0.85-0.3,1.7-0.47,2.55
		c-0.12,0.62-0.25,1.25-0.39,1.87c-0.08,0.42-0.17,0.83-0.27,1.25c-0.08,0.34-0.16,0.67-0.24,1.01c-0.12,0.51-0.24,1.02-0.37,1.53
		c-0.11,0.43-0.22,0.85-0.33,1.27c-0.12,0.46-0.24,0.91-0.37,1.36c-0.11,0.4-0.22,0.79-0.34,1.19c-0.13,0.45-0.27,0.91-0.41,1.36
		c-0.13,0.45-0.27,0.89-0.42,1.33c-0.1,0.36-0.22,0.71-0.34,1.06c-0.21,0.66-0.44,1.32-0.67,1.97c-0.02,0.06-0.04,0.13-0.07,0.19
		c-0.25,0.72-0.51,1.45-0.79,2.16c-0.06,0.18-0.13,0.36-0.2,0.53c-0.22,0.6-0.46,1.19-0.7,1.78c-0.1,0.25-0.2,0.5-0.31,0.75
		c-0.24,0.6-0.49,1.21-0.76,1.8c-0.05,0.14-0.11,0.27-0.17,0.41c-0.32,0.73-0.64,1.45-0.98,2.17c-0.34,0.74-0.69,1.47-1.05,2.2
		c-0.32,0.66-0.65,1.32-0.99,1.98c-0.3,0.58-0.6,1.15-0.91,1.72c-0.28,0.52-0.56,1.04-0.85,1.55c-0.33,0.59-0.66,1.17-1,1.75
		c-0.43,0.75-0.88,1.49-1.33,2.22c-0.45,0.74-0.91,1.47-1.38,2.19c-0.47,0.72-0.94,1.44-1.43,2.15c-0.96,1.42-1.96,2.82-3,4.2
		c-0.51,0.68-1.04,1.36-1.57,2.04c-1.59,2.02-3.25,3.99-4.98,5.89c-0.49,0.55-0.99,1.09-1.5,1.62c-1.88,2-3.84,3.93-5.86,5.78
		c-0.4,0.37-0.8,0.73-1.21,1.08c-0.91,0.82-1.84,1.62-2.78,2.4c-0.55,0.45-1.1,0.9-1.66,1.35c-0.04,0.04-0.09,0.08-0.14,0.11
		c-0.6,0.48-1.21,0.96-1.82,1.42c-0.1,0.08-0.2,0.16-0.31,0.23c-0.47,0.37-0.95,0.73-1.44,1.08c-0.26,0.19-0.52,0.39-0.79,0.57
		c-0.54,0.39-1.08,0.78-1.63,1.16c-0.09,0.06-0.19,0.13-0.28,0.19c-0.68,0.47-1.36,0.93-2.05,1.38c-0.64,0.42-1.28,0.83-1.93,1.24
		c-0.18,0.11-0.37,0.23-0.55,0.34c-0.54,0.33-1.07,0.66-1.61,0.97c-0.17,0.11-0.33,0.2-0.49,0.29c-0.68,0.41-1.36,0.8-2.05,1.18
		c-0.75,0.43-1.51,0.84-2.28,1.24c-0.73,0.39-1.46,0.77-2.2,1.14c-0.1,0.05-0.19,0.1-0.28,0.14c-0.66,0.33-1.32,0.65-1.98,0.96
		c-0.17,0.08-0.33,0.16-0.49,0.23c-0.66,0.31-1.32,0.61-1.98,0.9c-0.12,0.06-0.23,0.11-0.34,0.15c-0.62,0.28-1.23,0.54-1.85,0.79
		c-0.33,0.15-0.67,0.29-1,0.41c-0.54,0.23-1.08,0.44-1.62,0.65c-0.11,0.05-0.21,0.09-0.32,0.12c-0.74,0.29-1.49,0.57-2.24,0.84
		c-0.8,0.29-1.61,0.57-2.43,0.84c-0.08,0.03-0.16,0.06-0.24,0.08c-0.77,0.26-1.54,0.51-2.32,0.74c-6.72,2.07-13.72,3.51-20.92,4.26
		c-0.51,0.06-1.02,0.11-1.53,0.15c-0.51,0.05-1.03,0.09-1.54,0.13c-0.79,0.06-1.58,0.12-2.37,0.16l-80.34-93.52
		c-20.11-14.7-6.47-26.81-6.47-26.81L328.82,196l6.39,10l52.98,39.89c0.01,0.01,0.01,0.03,0.01,0.04c0.19,0.85,0.37,1.71,0.54,2.57
		c0.05,0.27,0.1,0.54,0.15,0.81c0.12,0.61,0.23,1.22,0.33,1.83c0.09,0.52,0.18,1.04,0.25,1.56c0.05,0.25,0.09,0.51,0.12,0.77
		c0.09,0.58,0.18,1.16,0.25,1.75c0.05,0.34,0.09,0.68,0.13,1.03c0.12,0.89,0.22,1.78,0.3,2.67c0.07,0.62,0.12,1.24,0.17,1.86
		c0,0.02,0.01,0.03,0,0.05c0.03,0.34,0.06,0.69,0.09,1.04c0.02,0.3,0.04,0.6,0.06,0.9c0.02,0.3,0.03,0.6,0.05,0.9
		c0.01,0.05,0.01,0.1,0.01,0.16c0.02,0.43,0.05,0.87,0.06,1.3c0.01,0.07,0.01,0.15,0.01,0.23c0.03,0.6,0.05,1.19,0.06,1.78
		C390.81,268.09,390.82,269.04,390.82,270z"/>
</g>
<g>
	<path class="st1" d="M390.82,270c0,1.85-0.05,3.69-0.13,5.52c-0.07,1.35-0.16,2.71-0.28,4.05c-0.04,0.56-0.1,1.11-0.15,1.67
		c-0.12,1.18-0.26,2.37-0.42,3.54c-0.09,0.7-0.19,1.39-0.29,2.08c-0.12,0.74-0.24,1.48-0.37,2.22c-0.14,0.85-0.3,1.7-0.47,2.55
		c-0.12,0.62-0.25,1.25-0.39,1.87c-0.08,0.42-0.17,0.83-0.27,1.25c-0.08,0.34-0.16,0.67-0.24,1.01c-0.12,0.51-0.24,1.02-0.37,1.53
		c-0.11,0.43-0.22,0.85-0.33,1.27c-0.12,0.46-0.24,0.91-0.37,1.36c-0.11,0.4-0.22,0.79-0.34,1.19c-0.13,0.45-0.27,0.91-0.41,1.36
		c-0.13,0.45-0.27,0.89-0.42,1.33c-0.1,0.36-0.22,0.71-0.34,1.06c-0.21,0.66-0.44,1.32-0.67,1.97c-0.02,0.06-0.04,0.13-0.07,0.19
		c-0.25,0.72-0.51,1.45-0.79,2.16c-0.06,0.18-0.13,0.36-0.2,0.53c-0.22,0.6-0.46,1.19-0.7,1.78c-0.1,0.25-0.2,0.5-0.31,0.75
		c-0.24,0.6-0.49,1.21-0.76,1.8c-0.05,0.14-0.11,0.27-0.17,0.41c-0.32,0.73-0.64,1.45-0.98,2.17c-0.34,0.74-0.69,1.47-1.05,2.2
		c-0.32,0.66-0.65,1.32-0.99,1.98c-0.3,0.58-0.6,1.15-0.91,1.72c-0.28,0.52-0.56,1.04-0.85,1.55c-0.33,0.59-0.66,1.17-1,1.75
		c-0.43,0.75-0.88,1.49-1.33,2.22c-0.45,0.74-0.91,1.47-1.38,2.19c-0.47,0.72-0.94,1.44-1.43,2.15c-0.96,1.42-1.96,2.82-3,4.2
		c-0.51,0.68-1.04,1.36-1.57,2.04c-1.59,2.02-3.25,3.99-4.98,5.89c-0.49,0.55-0.99,1.09-1.5,1.62c-1.88,2-3.84,3.93-5.86,5.78
		c-0.4,0.37-0.8,0.73-1.21,1.08c-0.91,0.82-1.84,1.62-2.78,2.4c-0.55,0.45-1.1,0.9-1.66,1.35c-0.04,0.04-0.09,0.08-0.14,0.11
		c-0.6,0.48-1.21,0.96-1.82,1.42c-0.1,0.08-0.2,0.16-0.31,0.23c-0.47,0.37-0.95,0.73-1.44,1.08c-0.26,0.19-0.52,0.39-0.79,0.57
		c-0.54,0.39-1.08,0.78-1.63,1.16c-0.09,0.06-0.19,0.13-0.28,0.19c-0.68,0.47-1.36,0.93-2.05,1.38c-0.64,0.42-1.28,0.83-1.93,1.24
		c-0.18,0.11-0.37,0.23-0.55,0.34c-0.54,0.33-1.07,0.66-1.61,0.97c-0.17,0.11-0.33,0.2-0.49,0.29c-0.68,0.41-1.36,0.8-2.05,1.18
		c-0.75,0.43-1.51,0.84-2.28,1.24c-0.73,0.39-1.46,0.77-2.2,1.14c-0.1,0.05-0.19,0.1-0.28,0.14c-0.66,0.33-1.32,0.65-1.98,0.96
		c-0.17,0.08-0.33,0.16-0.49,0.23c-0.66,0.31-1.32,0.61-1.98,0.9c-0.12,0.06-0.23,0.11-0.34,0.15c-0.62,0.28-1.23,0.54-1.85,0.79
		c-0.33,0.15-0.67,0.29-1,0.41c-0.54,0.23-1.08,0.44-1.62,0.65c-0.11,0.05-0.21,0.09-0.32,0.12c-0.74,0.29-1.49,0.57-2.24,0.84
		c-0.8,0.29-1.61,0.57-2.43,0.84c-0.08,0.03-0.16,0.06-0.24,0.08c-0.77,0.26-1.54,0.51-2.32,0.74c-6.72,2.07-13.72,3.51-20.92,4.26
		c-0.51,0.06-1.02,0.11-1.53,0.15c-0.51,0.05-1.03,0.09-1.54,0.13c-0.79,0.06-1.58,0.12-2.37,0.16c-2.06,0.11-4.14,0.17-6.24,0.17
		c-61.3,0-111-49.7-111-111s49.7-111,111-111c53.02,0,97.36,37.18,108.37,86.89c0.01,0.01,0.01,0.03,0.01,0.04
		c0.19,0.85,0.37,1.71,0.54,2.57c0.05,0.27,0.1,0.54,0.15,0.81c0.12,0.61,0.23,1.22,0.33,1.83c0.09,0.52,0.18,1.04,0.25,1.56
		c0.05,0.25,0.09,0.51,0.12,0.77c0.09,0.58,0.18,1.16,0.25,1.75c0.05,0.34,0.09,0.68,0.13,1.03c0.12,0.89,0.22,1.78,0.3,2.67
		c0.07,0.62,0.12,1.24,0.17,1.86c0,0.02,0.01,0.03,0,0.05c0.03,0.34,0.06,0.69,0.09,1.04c0.02,0.3,0.04,0.6,0.05,0.9
		c0.03,0.3,0.05,0.6,0.06,0.9c0.01,0.05,0.01,0.1,0.01,0.16c0.02,0.43,0.05,0.87,0.06,1.3c0.01,0.07,0.01,0.15,0.01,0.23
		c0.03,0.59,0.05,1.18,0.06,1.78C390.81,268.09,390.82,269.04,390.82,270z"/>
</g>
<g>
	<path class="st2" d="M390.82,270c0,1.85-0.05,3.69-0.13,5.52c-0.07,1.35-0.16,2.71-0.28,4.05c-0.04,0.56-0.1,1.11-0.15,1.67
		c-0.12,1.18-0.26,2.37-0.42,3.54c-0.09,0.7-0.19,1.39-0.29,2.08c-0.12,0.74-0.24,1.48-0.37,2.22c-0.14,0.85-0.3,1.7-0.47,2.55
		c-0.12,0.62-0.25,1.25-0.39,1.87c-0.08,0.42-0.17,0.83-0.27,1.25c-0.08,0.34-0.16,0.67-0.24,1.01c-0.12,0.51-0.24,1.02-0.37,1.53
		c-0.11,0.43-0.22,0.85-0.33,1.27c-0.12,0.46-0.24,0.91-0.37,1.36c-0.11,0.4-0.22,0.79-0.34,1.19c-0.13,0.45-0.27,0.91-0.41,1.36
		c-0.13,0.45-0.27,0.89-0.42,1.33c-0.1,0.36-0.22,0.71-0.34,1.06c-0.21,0.66-0.44,1.32-0.67,1.97c-0.02,0.06-0.04,0.13-0.07,0.19
		c-0.25,0.72-0.51,1.45-0.79,2.16c-0.06,0.18-0.13,0.36-0.2,0.53c-0.22,0.6-0.46,1.19-0.7,1.78c-0.1,0.25-0.2,0.5-0.31,0.75
		c-0.24,0.6-0.49,1.21-0.76,1.8c-0.05,0.14-0.11,0.27-0.17,0.41c-0.32,0.73-0.64,1.45-0.98,2.17c-0.34,0.74-0.69,1.47-1.05,2.2
		c-0.32,0.66-0.65,1.32-0.99,1.98c-0.3,0.58-0.6,1.15-0.91,1.72c-0.28,0.52-0.56,1.04-0.85,1.55c-0.33,0.59-0.66,1.17-1,1.75
		c-0.43,0.75-0.88,1.49-1.33,2.22c-0.45,0.74-0.91,1.47-1.38,2.19c-0.47,0.72-0.94,1.44-1.43,2.15c-0.96,1.42-1.96,2.82-3,4.2
		c-0.51,0.68-1.04,1.36-1.57,2.04c-1.59,2.02-3.25,3.99-4.98,5.89c-0.49,0.55-0.99,1.09-1.5,1.62c-1.88,2-3.84,3.93-5.86,5.78
		c-0.4,0.37-0.8,0.73-1.21,1.08c-0.91,0.82-1.84,1.62-2.78,2.4c-0.55,0.45-1.1,0.9-1.66,1.35c-0.04,0.04-0.09,0.08-0.14,0.11
		c-0.6,0.48-1.21,0.96-1.82,1.42c-0.1,0.08-0.2,0.16-0.31,0.23c-0.47,0.37-0.95,0.73-1.44,1.08c-0.26,0.19-0.52,0.39-0.79,0.57
		c-0.54,0.39-1.08,0.78-1.63,1.16c-0.09,0.06-0.19,0.13-0.28,0.19c-0.68,0.47-1.36,0.93-2.05,1.38c-0.64,0.42-1.28,0.83-1.93,1.24
		c-0.18,0.11-0.37,0.23-0.55,0.34c-0.54,0.33-1.07,0.66-1.61,0.97c-0.17,0.11-0.33,0.2-0.49,0.29c-0.68,0.41-1.36,0.8-2.05,1.18
		c-0.75,0.43-1.51,0.84-2.28,1.24c-0.73,0.39-1.46,0.77-2.2,1.14c-0.1,0.05-0.19,0.1-0.28,0.14c-0.66,0.33-1.32,0.65-1.98,0.96
		c-0.17,0.08-0.33,0.16-0.49,0.23c-0.66,0.31-1.32,0.61-1.98,0.9c-0.12,0.06-0.23,0.11-0.34,0.15c-0.62,0.28-1.23,0.54-1.85,0.79
		c-0.33,0.15-0.67,0.29-1,0.41c-0.54,0.23-1.08,0.44-1.62,0.65c-0.11,0.05-0.21,0.09-0.32,0.12c-0.74,0.29-1.49,0.57-2.24,0.84
		c-0.8,0.29-1.61,0.57-2.43,0.84c-0.08,0.03-0.16,0.06-0.24,0.08c-0.77,0.26-1.54,0.51-2.32,0.74c-6.72,2.07-13.72,3.51-20.92,4.26
		c-0.51,0.06-1.02,0.11-1.53,0.15c-0.51,0.05-1.03,0.09-1.54,0.13c-0.79,0.06-1.58,0.12-2.37,0.16l-80.34-93.52
		c14.1-10.31,22.1-13.31,22.1-13.31l94-59l11-9l57.76,56.77h0.01c0.02,0.3,0.03,0.6,0.05,0.9c0.01,0.05,0.01,0.1,0.01,0.16
		c0.02,0.43,0.05,0.87,0.06,1.3c0.01,0.07,0.01,0.15,0.01,0.23c0.03,0.6,0.05,1.19,0.06,1.78
		C390.81,268.09,390.82,269.04,390.82,270z"/>
</g>
<g>
	<path class="st3" d="M454.78,265.17h22.08v13.01h-38.93V209h16.85V265.17z"/>
	<path class="st3" d="M494.44,275.52c-4.3-2.3-7.69-5.58-10.15-9.85c-2.46-4.27-3.7-9.26-3.7-14.98c0-5.65,1.25-10.63,3.75-14.93
		c2.5-4.3,5.91-7.6,10.25-9.9c4.34-2.3,9.2-3.45,14.59-3.45c5.39,0,10.25,1.15,14.58,3.45c4.34,2.3,7.75,5.6,10.25,9.9
		c2.5,4.3,3.74,9.28,3.74,14.93c0,5.65-1.27,10.63-3.79,14.93c-2.53,4.3-5.98,7.6-10.35,9.9c-4.37,2.3-9.25,3.45-14.63,3.45
		C503.59,278.97,498.74,277.82,494.44,275.52z M517.21,260.83c2.27-2.37,3.4-5.75,3.4-10.15c0-4.4-1.1-7.79-3.3-10.15
		s-4.91-3.55-8.13-3.55c-3.29,0-6.01,1.17-8.18,3.5c-2.17,2.33-3.25,5.73-3.25,10.2c0,4.4,1.07,7.79,3.2,10.15
		c2.13,2.37,4.81,3.55,8.03,3.55C512.2,264.38,514.94,263.2,517.21,260.83z"/>
	<path class="st3" d="M545.88,235.7c2.33-4.27,5.58-7.55,9.76-9.85c4.17-2.3,8.95-3.45,14.34-3.45c6.9,0,12.66,1.81,17.29,5.42
		c4.63,3.61,7.67,8.71,9.12,15.28h-17.94c-1.51-4.2-4.44-6.31-8.77-6.31c-3.09,0-5.55,1.2-7.39,3.6c-1.84,2.4-2.76,5.83-2.76,10.3
		c0,4.47,0.92,7.9,2.76,10.3c1.84,2.4,4.3,3.6,7.39,3.6c4.34,0,7.26-2.1,8.77-6.31h17.94c-1.45,6.44-4.5,11.5-9.17,15.18
		c-4.67,3.68-10.41,5.52-17.25,5.52c-5.39,0-10.17-1.15-14.34-3.45c-4.17-2.3-7.43-5.58-9.76-9.85c-2.33-4.27-3.5-9.26-3.5-14.98
		C542.38,244.97,543.55,239.98,545.88,235.7z"/>
	<path class="st3" d="M604.22,235.7c2.13-4.27,5.04-7.55,8.72-9.85c3.68-2.3,7.79-3.45,12.32-3.45c3.88,0,7.28,0.79,10.2,2.37
		c2.92,1.58,5.17,3.65,6.75,6.21v-7.79h16.85v54.99h-16.85v-7.78c-1.64,2.56-3.93,4.63-6.85,6.21c-2.92,1.58-6.32,2.37-10.2,2.37
		c-4.47,0-8.54-1.17-12.22-3.5c-3.68-2.33-6.59-5.65-8.72-9.95c-2.14-4.3-3.2-9.28-3.2-14.93
		C601.02,244.94,602.09,239.98,604.22,235.7z M638.72,240.73c-2.33-2.43-5.17-3.65-8.53-3.65c-3.35,0-6.19,1.2-8.52,3.6
		c-2.33,2.4-3.5,5.7-3.5,9.9c0,4.21,1.16,7.54,3.5,10c2.33,2.46,5.17,3.7,8.52,3.7c3.35,0,6.19-1.21,8.53-3.65
		c2.33-2.43,3.5-5.75,3.5-9.95C642.21,246.48,641.05,243.16,638.72,240.73z"/>
	<path class="st3" d="M687.15,205.25v72.93H670.3v-72.93H687.15z"/>
	<path class="st3" d="M729.72,276.41c-4.01-1.64-7.21-4.07-9.61-7.29c-2.4-3.22-3.66-7.1-3.79-11.63h17.94
		c0.26,2.56,1.15,4.52,2.66,5.86c1.51,1.35,3.48,2.02,5.91,2.02c2.5,0,4.47-0.57,5.91-1.72c1.45-1.15,2.17-2.74,2.17-4.78
		c0-1.71-0.58-3.12-1.72-4.24c-1.15-1.12-2.56-2.04-4.24-2.76c-1.68-0.72-4.06-1.54-7.14-2.46c-4.47-1.38-8.12-2.76-10.94-4.14
		c-2.83-1.38-5.26-3.42-7.29-6.11c-2.04-2.69-3.05-6.21-3.05-10.54c0-6.44,2.33-11.48,7-15.13c4.66-3.65,10.74-5.47,18.23-5.47
		c7.62,0,13.76,1.82,18.43,5.47c4.66,3.65,7.16,8.72,7.49,15.23h-18.23c-0.13-2.23-0.95-3.99-2.46-5.27
		c-1.51-1.28-3.45-1.92-5.81-1.92c-2.04,0-3.68,0.54-4.93,1.63s-1.87,2.65-1.87,4.68c0,2.23,1.05,3.98,3.15,5.22
		c2.1,1.25,5.39,2.6,9.86,4.04c4.47,1.51,8.1,2.96,10.89,4.34c2.79,1.38,5.21,3.38,7.24,6.01c2.04,2.63,3.05,6.01,3.05,10.15
		c0,3.94-1,7.52-3.01,10.74c-2,3.22-4.91,5.78-8.72,7.69c-3.81,1.91-8.31,2.86-13.5,2.86C738.27,278.87,733.73,278.05,729.72,276.41
		z"/>
	<path class="st3" d="M794.77,222.5v13.99h22.57v13.01h-22.57v15.18h25.52v13.5h-42.38V209h42.38v13.5H794.77z"/>
	<path class="st3" d="M845.07,274.33c-5.42-3.02-9.72-7.24-12.91-12.66c-3.19-5.42-4.78-11.51-4.78-18.28
		c0-6.77,1.59-12.84,4.78-18.23c3.19-5.39,7.49-9.59,12.91-12.61c5.42-3.02,11.38-4.53,17.89-4.53c6.5,0,12.46,1.51,17.89,4.53
		c5.42,3.02,9.69,7.23,12.81,12.61c3.12,5.39,4.68,11.47,4.68,18.23c0,6.77-1.58,12.86-4.73,18.28c-3.15,5.42-7.43,9.64-12.81,12.66
		c-5.39,3.02-11.33,4.53-17.84,4.53C856.46,278.87,850.5,277.36,845.07,274.33z M876.22,257.98c3.32-3.68,4.98-8.54,4.98-14.58
		c0-6.11-1.66-10.99-4.98-14.63c-3.32-3.65-7.74-5.47-13.25-5.47c-5.59,0-10.04,1.81-13.35,5.42c-3.32,3.61-4.98,8.51-4.98,14.68
		c0,6.11,1.66,10.99,4.98,14.63c3.32,3.65,7.77,5.47,13.35,5.47C868.48,263.5,872.9,261.66,876.22,257.98z"/>
</g>
<g>
	<path class="st3" d="M443.18,334.38h11.49v3.48H438.9v-32.82h4.28V334.38z"/>
	<path class="st3" d="M476,305.04v32.82h-4.28v-32.82H476z"/>
	<path class="st3" d="M521.58,337.86h-4.29l-17.23-26.13v26.13h-4.28V305h4.28l17.23,26.08V305h4.29V337.86z"/>
	<path class="st3" d="M559.15,337.86l-13.51-14.97v14.97h-4.29v-32.82h4.29v15.21l13.56-15.21h5.41l-14.88,16.43l15.02,16.39H559.15
		z"/>
	<path class="st3" d="M626.79,322.42c0.99,0.79,1.77,1.76,2.35,2.92c0.58,1.16,0.87,2.4,0.87,3.72c0,1.66-0.42,3.16-1.27,4.5
		c-0.85,1.33-2.08,2.39-3.7,3.16c-1.62,0.77-3.53,1.15-5.72,1.15h-12.24v-32.82h11.77c2.23,0,4.13,0.37,5.7,1.11
		c1.57,0.74,2.75,1.73,3.53,2.99c0.78,1.26,1.18,2.67,1.18,4.24c0,1.95-0.53,3.55-1.58,4.83c-1.05,1.27-2.44,2.19-4.17,2.75
		C624.71,321.15,625.8,321.63,626.79,322.42z M611.37,319.22h7.21c2.01,0,3.56-0.47,4.66-1.41c1.1-0.94,1.65-2.24,1.65-3.91
		c0-1.66-0.55-2.97-1.65-3.91c-1.1-0.94-2.68-1.41-4.75-1.41h-7.11V319.22z M623.94,332.82c1.19-1,1.79-2.4,1.79-4.19
		c0-1.82-0.63-3.26-1.88-4.31s-2.94-1.58-5.04-1.58h-7.44v11.58h7.58C621.08,334.33,622.75,333.83,623.94,332.82z"/>
	<path class="st3" d="M652.62,305.04v20.76c0,2.92,0.71,5.08,2.14,6.5c1.43,1.41,3.41,2.12,5.96,2.12c2.51,0,4.48-0.71,5.91-2.12
		c1.43-1.41,2.14-3.58,2.14-6.5v-20.76h4.28v20.72c0,2.73-0.55,5.03-1.65,6.9c-1.1,1.87-2.58,3.26-4.45,4.17
		c-1.87,0.91-3.96,1.37-6.29,1.37c-2.32,0-4.42-0.46-6.29-1.37c-1.87-0.91-3.34-2.3-4.43-4.17c-1.08-1.87-1.62-4.17-1.62-6.9v-20.72
		H652.62z"/>
	<path class="st3" d="M696.97,305.04v32.82h-4.29v-32.82H696.97z"/>
	<path class="st3" d="M721.03,334.38h11.49v3.48h-15.77v-32.82h4.28V334.38z"/>
	<path class="st3" d="M769.08,307.04c2.62,1.33,4.63,3.24,6.03,5.72c1.4,2.48,2.1,5.4,2.1,8.76c0,3.36-0.7,6.27-2.1,8.73
		c-1.4,2.46-3.41,4.35-6.03,5.65c-2.62,1.3-5.72,1.95-9.3,1.95h-10.22v-32.82h10.22C763.36,305.04,766.46,305.71,769.08,307.04z
		 M769.48,330.96c2.23-2.24,3.34-5.39,3.34-9.44c0-4.08-1.12-7.27-3.37-9.56s-5.47-3.44-9.68-3.44h-5.93v25.8h5.93
		C764.02,334.33,767.25,333.21,769.48,330.96z"/>
	<path class="st3" d="M799.61,305.04v32.82h-4.28v-32.82H799.61z"/>
	<path class="st3" d="M845.19,337.86h-4.29l-17.23-26.13v26.13h-4.28V305h4.28l17.23,26.08V305h4.29V337.86z"/>
	<path class="st3" d="M889.83,314.55c-0.91-1.91-2.23-3.4-3.96-4.45s-3.73-1.58-6.03-1.58c-2.29,0-4.36,0.53-6.19,1.58
		c-1.84,1.05-3.28,2.56-4.33,4.52c-1.05,1.96-1.58,4.23-1.58,6.8c0,2.57,0.53,4.83,1.58,6.78c1.05,1.95,2.49,3.45,4.33,4.5
		c1.84,1.05,3.9,1.58,6.19,1.58c3.2,0,5.84-0.96,7.91-2.87c2.07-1.91,3.28-4.5,3.62-7.77h-13.09v-3.48h17.66v3.3
		c-0.25,2.7-1.1,5.17-2.54,7.42c-1.45,2.25-3.34,4.02-5.7,5.32c-2.36,1.3-4.98,1.95-7.86,1.95c-3.05,0-5.82-0.71-8.33-2.14
		c-2.51-1.43-4.5-3.41-5.96-5.96c-1.46-2.54-2.19-5.42-2.19-8.62c0-3.2,0.73-6.08,2.19-8.64c1.46-2.56,3.45-4.55,5.96-5.98
		c2.51-1.43,5.29-2.14,8.33-2.14c3.48,0,6.57,0.86,9.25,2.59c2.68,1.73,4.64,4.16,5.86,7.3H889.83z"/>
</g>
<g>
	<path class="st4" d="M368.31,283.54"/>
</g>
<g>
	<path class="st5" d="M334.87,211.54l-45.39,131.53c-2,4.92-9.14,4.35-10.34-0.83l-19.5-47.7l-51.39-6.26
		c-4.91-0.52-6.32-7.01-2.05-9.51l13.6-7.98l7-4.11l102.37-60.09C332.46,204.6,336.38,208,334.87,211.54z"/>
</g>
<g>
	<path class="st2" d="M306.5,240c-0.6,0-1.2-0.21-1.68-0.65c-1.02-0.93-1.1-2.51-0.18-3.53l19-21c0.93-1.02,2.51-1.1,3.53-0.18
		c1.02,0.93,1.1,2.51,0.18,3.53l-19,21C307.86,239.72,307.18,240,306.5,240z"/>
</g>
<g>
	<path class="st2" d="M246.5,311c-0.6,0-1.2-0.21-1.68-0.65c-1.02-0.93-1.1-2.51-0.18-3.53l19-21c0.93-1.02,2.51-1.1,3.53-0.18
		c1.02,0.93,1.1,2.51,0.18,3.53l-19,21C247.86,310.72,247.18,311,246.5,311z"/>
</g>
<g>
	<g>
		<g>
			<path class="st2" d="M287.51,265.92c-1.24,1.41-2.46,2.78-3.7,4.19c-2.08-0.83-3.76-2.22-4.94-4.2
				c-2.26-3.8-1.85-8.56,1.05-11.89c2.58-2.97,5.17-5.94,7.78-8.88c4.54-5.12,12.65-4.51,16.24,1.21c2.38,3.79,2.03,8.69-0.9,12.08
				c-2.08,2.41-4.19,4.79-6.29,7.19c-0.04,0.05-0.1,0.09-0.17,0.16c0.03-0.67,0.09-1.29,0.1-1.92c0.02-1.48-0.26-2.91-0.8-4.28
				c-0.1-0.25-0.04-0.4,0.12-0.58c1.09-1.23,2.18-2.46,3.24-3.7c1.37-1.59,1.73-3.41,0.99-5.37c-0.7-1.86-2.1-2.98-4.07-3.3
				c-1.8-0.29-3.39,0.24-4.61,1.6c-2.69,3-5.35,6.04-7.97,9.1c-1.39,1.62-1.65,3.51-0.79,5.47c0.85,1.94,2.41,2.96,4.52,3.12
				C287.37,265.9,287.42,265.91,287.51,265.92z"/>
		</g>
	</g>
	<g>
		<g>
			<path class="st2" d="M275.83,258.74c-0.35,2.22-0.12,4.31,0.65,6.34c0.05,0.13-0.06,0.36-0.16,0.49
				c-1.11,1.29-2.25,2.54-3.34,3.84c-2.21,2.63-1.36,6.59,1.7,8.07c2.13,1.03,4.63,0.55,6.21-1.23c2.64-2.98,5.27-5.96,7.86-8.98
				c1.36-1.58,1.64-3.43,0.86-5.35c-0.79-1.96-2.32-3.03-4.43-3.25c-0.08-0.01-0.17-0.01-0.25-0.03c-0.02,0-0.04-0.03-0.16-0.11
				c0.56-0.61,1.12-1.21,1.66-1.81c0.6-0.67,1.2-1.35,1.78-2.04c0.17-0.21,0.32-0.23,0.56-0.13c6.2,2.65,8.15,10.64,3.79,15.8
				c-2.66,3.16-5.36,6.29-8.17,9.31c-2.76,2.98-6.26,3.95-10.16,2.87c-3.91-1.09-6.34-3.76-7.18-7.73
				c-0.66-3.13,0.05-6.02,2.12-8.48c2.12-2.52,4.33-4.97,6.5-7.45C275.7,258.82,275.74,258.81,275.83,258.74z"/>
		</g>
	</g>
</g>
</svg>
